<?xml version="1.0" encoding="UTF-8"?>
<svg version="1.1" xmlns="http://www.w3.org/2000/svg" width="500" height="500">
<path d="M0 0 C1.35184962 -0.00186974 2.70369871 -0.00417109 4.05554694 -0.00686532 C7.76014778 -0.01296957 11.464726 -0.01285135 15.16933072 -0.01167095 C19.16875818 -0.01146659 23.16817844 -0.016989 27.16760254 -0.02172852 C34.9993166 -0.030028 42.83102313 -0.03278304 50.66274122 -0.03334089 C57.02976688 -0.03381637 63.39679005 -0.0358727 69.76381493 -0.03904152 C87.82251183 -0.04784604 105.8812028 -0.05246119 123.93990187 -0.05171105 C124.91305136 -0.05167109 125.88620085 -0.05163113 126.88883972 -0.05158997 C128.35034977 -0.05152864 128.35034977 -0.05152864 129.84138527 -0.05146609 C145.63191897 -0.05105963 161.42242883 -0.06062948 177.21295563 -0.07472833 C193.43342522 -0.08909659 209.65388319 -0.09599827 225.87435931 -0.09513456 C234.97816805 -0.09480275 244.08195178 -0.09754267 253.18575478 -0.10831261 C260.93672473 -0.1174235 268.68765834 -0.11958799 276.43863133 -0.11280318 C280.39123937 -0.10954101 284.34377771 -0.10947036 288.29637909 -0.11815643 C291.91917693 -0.12603569 295.54184996 -0.12457551 299.1646448 -0.1158723 C301.08656733 -0.11361828 303.00849377 -0.12115474 304.93040115 -0.12911195 C318.56492369 -0.0749717 329.74622535 2.30533142 340.08586121 11.75871277 C350.88920185 23.40502455 352.08270342 37.52634996 352.02732849 52.68278503 C352.02963767 54.02087606 352.03281724 55.35896581 352.03678298 56.69705296 C352.04507692 60.34510835 352.0410305 63.99305815 352.03481054 67.64111376 C352.03026478 71.58664165 352.0372803 75.53215204 352.04277039 79.47767639 C352.05164344 87.19555603 352.0497517 94.91339666 352.0439451 102.6312778 C352.03942039 108.90619141 352.03881921 115.18109413 352.04099274 121.45600891 C352.0412992 122.35055961 352.04160567 123.24511031 352.04192142 124.16676861 C352.0425609 125.9842767 352.04320933 127.80178478 352.0438666 129.61929286 C352.04956378 146.64476338 352.04302162 163.67021233 352.03226587 180.69567931 C352.02333092 195.29059449 352.02488313 209.88547785 352.03410339 224.48039246 C352.04481684 241.44674548 352.04901452 258.41307961 352.04287887 275.37943554 C352.0422418 277.1900959 352.04161305 279.00075626 352.04099274 280.81141663 C352.04068419 281.70219565 352.04037563 282.59297468 352.04005773 283.51074702 C352.03833402 289.77497631 352.04123891 296.03919359 352.04595184 302.30342102 C352.05157262 309.94191432 352.05001909 317.58036653 352.03939036 325.21885514 C352.03414974 329.11287969 352.03204933 333.00683585 352.03868866 336.90085983 C352.04468373 340.47112683 352.04131487 344.04126256 352.03073356 347.61151779 C352.02746993 349.5026828 352.03393857 351.39385704 352.04084802 353.28501225 C351.97471035 367.78874874 349.36052422 380.54654975 338.77336121 391.13371277 C330.51417823 397.47251861 322.50103674 401.25210849 311.9698534 401.26514053 C310.80261102 401.26898168 309.63536865 401.27282282 308.43275529 401.27678037 C307.15456397 401.27591388 305.87637264 401.2750474 304.55944824 401.27415466 C303.18457573 401.27673935 301.80970396 401.2797528 300.43483323 401.28315806 C296.65730668 401.29121915 292.87979914 401.29301714 289.102265 401.29375553 C285.02781708 401.29560764 280.95337899 401.30315578 276.87893677 401.30989075 C267.96975599 401.32346831 259.06057972 401.3294979 250.15139031 401.33390141 C244.58744922 401.33666483 239.02350986 401.34090237 233.45956993 401.34540558 C218.05179739 401.35759754 202.64402623 401.36789697 187.23624897 401.37128067 C185.75726257 401.37161002 185.75726257 401.37161002 184.24839766 401.37194602 C182.76589136 401.37227344 182.76589136 401.37227344 181.25343543 401.37260747 C179.25071863 401.37305093 177.24800183 401.3734975 175.24528503 401.37394714 C173.75516295 401.37427929 173.75516295 401.37427929 172.23493739 401.37461814 C156.14033912 401.37856563 140.04578613 401.39601847 123.95120535 401.41930667 C107.4234356 401.44302844 90.89568856 401.4554829 74.3679015 401.45664859 C65.08966714 401.45756489 55.81149179 401.46330588 46.5332737 401.4814682 C38.63219368 401.49688034 30.73119092 401.50198308 22.83009873 401.4937301 C18.80051168 401.48982753 14.77108014 401.49073393 10.7415123 401.50478745 C7.04827044 401.51754993 3.35530058 401.51630844 -0.33794103 401.50419673 C-2.29774354 401.50132285 -4.25755085 401.51315771 -6.21731585 401.52561879 C-19.04174601 401.45401636 -29.93488761 398.28814284 -39.30085754 389.09855652 C-49.3421259 377.09695377 -50.37940507 364.0441721 -50.36035156 349.07275391 C-50.36261712 347.76427056 -50.36488268 346.4557872 -50.36721689 345.10765284 C-50.37331246 341.49091405 -50.37320394 337.87419846 -50.37202251 334.25745571 C-50.37181793 330.35069543 -50.37734273 326.4439425 -50.38208008 322.53718567 C-50.39037511 314.88842009 -50.39313441 307.23966223 -50.39369246 299.59089253 C-50.3941682 293.37075105 -50.39622588 287.1506121 -50.39939308 280.93047142 C-50.40819686 263.28024232 -50.41281294 245.63001929 -50.41206261 227.97978798 C-50.41202265 227.02890103 -50.4119827 226.07801408 -50.41194153 225.09831238 C-50.41190065 224.14625908 -50.41185977 223.19420579 -50.41181765 222.2133024 C-50.41141135 206.79021746 -50.42097743 191.36715695 -50.43507989 175.94407908 C-50.44945881 160.09307736 -50.45634923 144.24208754 -50.45548612 128.39107913 C-50.45515465 119.4978998 -50.45787962 110.60474608 -50.46866417 101.71157265 C-50.47778917 94.13857777 -50.47992806 86.56562012 -50.47315475 78.99262211 C-50.4698995 75.13279707 -50.46979668 71.27304335 -50.478508 67.41322517 C-50.48787705 63.21862663 -50.48157097 59.02419179 -50.47387695 54.82958984 C-50.47902052 53.62391934 -50.48416408 52.41824883 -50.48946351 51.17604285 C-50.43023937 36.50624618 -48.8425744 22.81155132 -38.41413879 11.69621277 C-34.42950709 8.02455022 -30.10596184 5.44645548 -25.22663879 3.13371277 C-23.92726379 2.51496277 -23.92726379 2.51496277 -22.60163879 1.88371277 C-15.2683243 -0.43207076 -7.60447667 -0.00942844 0 0 Z " fill="#FDFDFD" transform="translate(99.22663879394531,28.866287231445313)"/>
<path d="M0 0 C1.35184962 -0.00186974 2.70369871 -0.00417109 4.05554694 -0.00686532 C7.76014778 -0.01296957 11.464726 -0.01285135 15.16933072 -0.01167095 C19.16875818 -0.01146659 23.16817844 -0.016989 27.16760254 -0.02172852 C34.9993166 -0.030028 42.83102313 -0.03278304 50.66274122 -0.03334089 C57.02976688 -0.03381637 63.39679005 -0.0358727 69.76381493 -0.03904152 C87.82251183 -0.04784604 105.8812028 -0.05246119 123.93990187 -0.05171105 C124.91305136 -0.05167109 125.88620085 -0.05163113 126.88883972 -0.05158997 C128.35034977 -0.05152864 128.35034977 -0.05152864 129.84138527 -0.05146609 C145.63191897 -0.05105963 161.42242883 -0.06062948 177.21295563 -0.07472833 C193.43342522 -0.08909659 209.65388319 -0.09599827 225.87435931 -0.09513456 C234.97816805 -0.09480275 244.08195178 -0.09754267 253.18575478 -0.10831261 C260.93672473 -0.1174235 268.68765834 -0.11958799 276.43863133 -0.11280318 C280.39123937 -0.10954101 284.34377771 -0.10947036 288.29637909 -0.11815643 C291.91917693 -0.12603569 295.54184996 -0.12457551 299.1646448 -0.1158723 C301.08656733 -0.11361828 303.00849377 -0.12115474 304.93040115 -0.12911195 C318.56492369 -0.0749717 329.74622535 2.30533142 340.08586121 11.75871277 C350.88920185 23.40502455 352.08270342 37.52634996 352.02732849 52.68278503 C352.02963767 54.02087606 352.03281724 55.35896581 352.03678298 56.69705296 C352.04507692 60.34510835 352.0410305 63.99305815 352.03481054 67.64111376 C352.03026478 71.58664165 352.0372803 75.53215204 352.04277039 79.47767639 C352.05164344 87.19555603 352.0497517 94.91339666 352.0439451 102.6312778 C352.03942039 108.90619141 352.03881921 115.18109413 352.04099274 121.45600891 C352.0412992 122.35055961 352.04160567 123.24511031 352.04192142 124.16676861 C352.0425609 125.9842767 352.04320933 127.80178478 352.0438666 129.61929286 C352.04956378 146.64476338 352.04302162 163.67021233 352.03226587 180.69567931 C352.02333092 195.29059449 352.02488313 209.88547785 352.03410339 224.48039246 C352.04481684 241.44674548 352.04901452 258.41307961 352.04287887 275.37943554 C352.0422418 277.1900959 352.04161305 279.00075626 352.04099274 280.81141663 C352.04068419 281.70219565 352.04037563 282.59297468 352.04005773 283.51074702 C352.03833402 289.77497631 352.04123891 296.03919359 352.04595184 302.30342102 C352.05157262 309.94191432 352.05001909 317.58036653 352.03939036 325.21885514 C352.03414974 329.11287969 352.03204933 333.00683585 352.03868866 336.90085983 C352.04468373 340.47112683 352.04131487 344.04126256 352.03073356 347.61151779 C352.02746993 349.5026828 352.03393857 351.39385704 352.04084802 353.28501225 C351.97471035 367.78874874 349.36052422 380.54654975 338.77336121 391.13371277 C330.51417823 397.47251861 322.50103674 401.25210849 311.9698534 401.26514053 C310.80261102 401.26898168 309.63536865 401.27282282 308.43275529 401.27678037 C307.15456397 401.27591388 305.87637264 401.2750474 304.55944824 401.27415466 C303.18457573 401.27673935 301.80970396 401.2797528 300.43483323 401.28315806 C296.65730668 401.29121915 292.87979914 401.29301714 289.102265 401.29375553 C285.02781708 401.29560764 280.95337899 401.30315578 276.87893677 401.30989075 C267.96975599 401.32346831 259.06057972 401.3294979 250.15139031 401.33390141 C244.58744922 401.33666483 239.02350986 401.34090237 233.45956993 401.34540558 C218.05179739 401.35759754 202.64402623 401.36789697 187.23624897 401.37128067 C185.75726257 401.37161002 185.75726257 401.37161002 184.24839766 401.37194602 C182.76589136 401.37227344 182.76589136 401.37227344 181.25343543 401.37260747 C179.25071863 401.37305093 177.24800183 401.3734975 175.24528503 401.37394714 C173.75516295 401.37427929 173.75516295 401.37427929 172.23493739 401.37461814 C156.14033912 401.37856563 140.04578613 401.39601847 123.95120535 401.41930667 C107.4234356 401.44302844 90.89568856 401.4554829 74.3679015 401.45664859 C65.08966714 401.45756489 55.81149179 401.46330588 46.5332737 401.4814682 C38.63219368 401.49688034 30.73119092 401.50198308 22.83009873 401.4937301 C18.80051168 401.48982753 14.77108014 401.49073393 10.7415123 401.50478745 C7.04827044 401.51754993 3.35530058 401.51630844 -0.33794103 401.50419673 C-2.29774354 401.50132285 -4.25755085 401.51315771 -6.21731585 401.52561879 C-19.04174601 401.45401636 -29.93488761 398.28814284 -39.30085754 389.09855652 C-49.3421259 377.09695377 -50.37940507 364.0441721 -50.36035156 349.07275391 C-50.36261712 347.76427056 -50.36488268 346.4557872 -50.36721689 345.10765284 C-50.37331246 341.49091405 -50.37320394 337.87419846 -50.37202251 334.25745571 C-50.37181793 330.35069543 -50.37734273 326.4439425 -50.38208008 322.53718567 C-50.39037511 314.88842009 -50.39313441 307.23966223 -50.39369246 299.59089253 C-50.3941682 293.37075105 -50.39622588 287.1506121 -50.39939308 280.93047142 C-50.40819686 263.28024232 -50.41281294 245.63001929 -50.41206261 227.97978798 C-50.41202265 227.02890103 -50.4119827 226.07801408 -50.41194153 225.09831238 C-50.41190065 224.14625908 -50.41185977 223.19420579 -50.41181765 222.2133024 C-50.41141135 206.79021746 -50.42097743 191.36715695 -50.43507989 175.94407908 C-50.44945881 160.09307736 -50.45634923 144.24208754 -50.45548612 128.39107913 C-50.45515465 119.4978998 -50.45787962 110.60474608 -50.46866417 101.71157265 C-50.47778917 94.13857777 -50.47992806 86.56562012 -50.47315475 78.99262211 C-50.4698995 75.13279707 -50.46979668 71.27304335 -50.478508 67.41322517 C-50.48787705 63.21862663 -50.48157097 59.02419179 -50.47387695 54.82958984 C-50.47902052 53.62391934 -50.48416408 52.41824883 -50.48946351 51.17604285 C-50.43023937 36.50624618 -48.8425744 22.81155132 -38.41413879 11.69621277 C-34.42950709 8.02455022 -30.10596184 5.44645548 -25.22663879 3.13371277 C-23.92726379 2.51496277 -23.92726379 2.51496277 -22.60163879 1.88371277 C-15.2683243 -0.43207076 -7.60447667 -0.00942844 0 0 Z M109.77336121 36.13371277 C108.84781433 36.32707214 107.92226746 36.52043152 106.96867371 36.71965027 C69.40513232 44.9231823 29.32471648 70.98772351 8.08976746 103.36808777 C7.31230257 104.62000207 6.5406869 105.87555843 5.77336121 107.13371277 C5.30011414 107.9077948 4.82686707 108.68187683 4.33927917 109.47941589 C-7.27940747 128.69763069 -14.57346133 147.13805218 -19.22663879 169.13371277 C-19.42459045 170.05917908 -19.62254211 170.98464539 -19.82649231 171.93815613 C-21.48926641 180.62942527 -21.586517 189.25910197 -21.53913879 198.07121277 C-21.53598663 198.8450531 -21.53283447 199.61889343 -21.52958679 200.41618347 C-21.27975521 242.28428779 -6.53836604 278.9018469 19.77336121 311.13371277 C20.63961121 312.21652527 20.63961121 312.21652527 21.52336121 313.32121277 C25.18301475 317.77644317 29.36590222 321.43353183 33.77336121 325.13371277 C35.10367371 326.29580261 35.10367371 326.29580261 36.46086121 327.48136902 C57.77508922 345.81954126 84.11728027 359.19863038 111.72160339 364.71183777 C113.67732799 365.11396677 115.62055466 365.57551574 117.56242371 366.03996277 C138.80296042 370.637113 161.53870417 369.01394126 182.77336121 365.13371277 C183.53970886 365.00512878 184.30605652 364.8765448 185.09562683 364.74406433 C225.83897732 357.8124034 263.90745518 331.38693279 287.77336121 298.13371277 C302.2343058 277.50087839 312.3593509 253.94906339 316.77336121 229.13371277 C317.02605774 227.86757141 317.02605774 227.86757141 317.28385925 226.57585144 C318.81344054 218.41967436 319.12141076 210.48286438 319.08586121 202.19621277 C319.08403839 201.51973694 319.08221558 200.84326111 319.08033752 200.14628601 C319.02680615 188.28429059 318.18756045 176.7659816 315.77336121 165.13371277 C315.61238953 164.34674011 315.45141785 163.55976746 315.28556824 162.74894714 C308.64509306 131.64524208 291.83672957 103.71332906 269.77336121 81.13371277 C269.22446228 80.56217468 268.67556335 79.9906366 268.11003113 79.40177917 C264.14858725 75.33878827 260.01669759 71.7627115 255.46086121 68.38371277 C254.77717468 67.87493591 254.09348816 67.36615906 253.38908386 66.84196472 C222.81303866 44.47186334 190.56951043 32.49857471 152.62052917 32.74259949 C149.64366639 32.75873822 146.66815307 32.74261679 143.69132996 32.72355652 C132.0537503 32.71060935 121.13597807 33.62249985 109.77336121 36.13371277 Z " fill="#000000" transform="translate(99.22663879394531,28.866287231445313)"/>
<path d="M0 0 C-1.51717337 4.35189203 -4.84415967 6.2858318 -8.5 8.75 C-9.78133621 9.64123652 -11.06127821 10.53448072 -12.33984375 11.4296875 C-12.96745605 11.86764648 -13.59506836 12.30560547 -14.24169922 12.75683594 C-25.77243444 20.90936353 -37.28338391 30.83245331 -46 42 C-46.74378906 42.94488281 -47.48757812 43.88976562 -48.25390625 44.86328125 C-70.63110855 74.2430851 -81.65875047 110.64439154 -77.61914062 147.47216797 C-76.44659696 159.05067543 -76.44659696 159.05067543 -73 170 C-72.57918812 176.31217826 -73.00638077 180.47048598 -77.265625 185.4921875 C-91.73237796 199.59361841 -122.52261859 205.48530904 -142.14453125 207.2890625 C-146.70888969 206.82700706 -148.13367625 204.28012099 -150.92578125 200.87109375 C-160.94094998 187.00828958 -168.15456164 170.62796033 -172 154 C-172.14953125 153.3596582 -172.2990625 152.71931641 -172.453125 152.05957031 C-179.48523857 120.70301218 -174.7352633 86.07311163 -158.1875 58.375 C-154.50524956 52.57371865 -150.41882981 47.25275213 -146 42 C-145.56042969 41.43796875 -145.12085938 40.8759375 -144.66796875 40.296875 C-141.25309335 35.95689958 -137.21317909 32.52781605 -133 29 C-132.1853125 28.29746094 -131.370625 27.59492188 -130.53125 26.87109375 C-115.21357053 13.91864419 -98.20269401 4.78214453 -79 -1 C-78.06671875 -1.29777344 -77.1334375 -1.59554687 -76.171875 -1.90234375 C-52.45681022 -9.03816414 -23.27568819 -8.47136355 0 0 Z " fill="#010101" transform="translate(293,106)"/>
<path d="M0 0 C3.19942923 2.22366969 5.52574709 5.01064462 8 8 C8.4218457 8.49870605 8.84369141 8.99741211 9.27832031 9.51123047 C24.31442469 27.38218798 34.66892622 46.98375917 39 70 C39.22558594 71.16015625 39.45117188 72.3203125 39.68359375 73.515625 C42.39584559 89.60208416 43.06151398 106.52619582 34.25 120.875 C28.17661336 129.12935342 21.75498237 133.06877751 12 136 C11.01 136.33 10.02 136.66 9 137 C-18.10152606 138.66778622 -42.55336068 127.12719856 -63 110 C-63.83144531 109.33226562 -64.66289062 108.66453125 -65.51953125 107.9765625 C-73.13202569 101.62201007 -81.13232834 92.66016058 -83.5390625 82.7890625 C-84.20920575 65.91363692 -69.63687587 45.81262726 -59 34 C-58.32582031 33.24332031 -57.65164063 32.48664063 -56.95703125 31.70703125 C-46.22579631 20.33151955 -32.77587388 12.15856094 -19 5 C-17.95328125 4.44957031 -16.9065625 3.89914063 -15.828125 3.33203125 C-10.33712689 0.62445345 -6.09754488 -1.29947678 0 0 Z " fill="#010101" transform="translate(339,137)"/>
</svg>
