<?xml version="1.0" standalone="no"?>
<!DOCTYPE svg PUBLIC "-//W3C//DTD SVG 20010904//EN"
 "http://www.w3.org/TR/2001/REC-SVG-20010904/DTD/svg10.dtd">
<svg version="1.0" xmlns="http://www.w3.org/2000/svg"
 width="1196.000000pt" height="1195.000000pt" viewBox="0 0 1196.000000 1195.000000"
 preserveAspectRatio="xMidYMid meet">

<g transform="translate(0.000000,1195.000000) scale(0.100000,-0.100000)"
fill="#000000" stroke="none">
<path d="M160 10805 l0 -985 985 0 985 0 0 985 0 985 -985 0 -985 0 0 -985z
m1690 5 l0 -710 -710 0 -710 0 0 710 0 710 710 0 710 0 0 -710z"/>
<path d="M740 11225 c0 -8 -7 -15 -15 -15 -13 0 -15 -51 -15 -400 0 -349 2
-400 15 -400 8 0 15 -7 15 -15 0 -13 53 -15 415 -15 l415 0 0 415 c0 362 -2
415 -15 415 -8 0 -15 7 -15 15 0 13 -51 15 -400 15 -349 0 -400 -2 -400 -15z"/>
<path d="M3290 11515 l0 -275 -140 0 c-118 0 -140 -2 -140 -15 0 -8 -4 -15
-10 -15 -6 0 -10 -48 -10 -125 l0 -125 290 0 290 0 0 415 0 415 -140 0 -140 0
0 -275z"/>
<path d="M4120 11655 l0 -135 -140 0 -140 0 0 -140 0 -140 280 0 280 0 0 140
0 140 290 0 290 0 0 -280 0 -280 280 0 280 0 0 140 0 140 -140 0 -140 0 0 140
0 140 140 0 140 0 0 135 0 135 -710 0 -710 0 0 -135z"/>
<path d="M6120 11655 l0 -135 -140 0 -140 0 0 -850 0 -850 140 0 140 0 0 280
0 280 415 0 415 0 0 140 0 140 -275 0 -275 0 0 135 c0 83 4 135 10 135 6 0 10
7 10 15 0 13 36 15 265 15 229 0 265 -2 265 -15 0 -8 7 -15 15 -15 13 0 15
-22 15 -135 l0 -135 261 0 c212 0 263 3 275 14 11 11 14 44 14 135 l0 121
-135 0 -135 0 0 140 c0 118 -2 140 -15 140 -8 0 -15 7 -15 15 0 13 -22 15
-140 15 l-140 0 0 140 0 140 -125 0 -125 0 0 -140 0 -140 -150 0 -150 0 0 140
0 140 135 0 135 0 0 135 0 135 -275 0 -275 0 0 -135z"/>
<path d="M6980 11655 l0 -135 140 0 140 0 0 135 0 135 -140 0 -140 0 0 -135z"/>
<path d="M7840 11665 c0 -104 -2 -125 -15 -125 -8 0 -15 -4 -15 -10 0 -6 -53
-10 -140 -10 l-140 0 0 -140 0 -140 710 0 710 0 0 140 0 140 150 0 150 0 0
-140 0 -140 140 0 140 0 0 275 0 275 -430 0 -430 0 0 -135 0 -135 -281 0
c-184 0 -278 3 -274 10 3 6 -1 10 -9 10 -14 0 -16 18 -16 125 l0 125 -125 0
-125 0 0 -125z"/>
<path d="M9810 10805 l0 -985 995 0 995 0 0 985 0 985 -995 0 -995 0 0 -985z
m1720 5 l0 -710 -725 0 -725 0 0 710 0 710 725 0 725 0 0 -710z"/>
<path d="M10390 10810 l0 -430 415 0 415 0 0 430 0 430 -415 0 -415 0 0 -430z"/>
<path d="M2710 11380 l0 -140 140 0 140 0 0 140 0 140 -140 0 -140 0 0 -140z"/>
<path d="M2430 10380 l0 -860 125 0 c104 0 125 2 125 15 0 8 7 15 15 15 13 0
15 37 15 275 l0 275 140 0 140 0 0 140 0 140 150 0 150 0 0 -140 0 -140 140 0
140 0 0 -140 0 -140 135 0 135 0 0 125 c0 77 -4 125 -10 125 -5 0 -10 7 -10
15 0 13 -21 15 -125 15 l-125 0 0 280 0 280 121 0 c91 0 124 3 135 14 11 11
14 44 14 135 l0 121 -135 0 -135 0 0 -135 0 -135 -290 0 -291 0 2 -137 1 -138
-141 -3 -141 -3 0 416 c0 362 -2 415 -15 415 -8 0 -15 7 -15 15 0 13 -21 15
-125 15 l-125 0 0 -860z"/>
<path d="M4430 11100 c0 -118 -2 -140 -15 -140 -8 0 -15 -7 -15 -15 0 -13 -22
-15 -140 -15 l-140 0 0 -260 c0 -224 2 -260 15 -260 8 0 15 -7 15 -15 0 -13
21 -15 125 -15 l125 0 0 140 0 140 275 0 c177 0 275 4 275 10 0 6 7 10 15 10
13 0 15 21 15 125 l0 125 -140 0 c-118 0 -140 2 -140 15 0 8 -4 15 -8 15 -5 0
-9 48 -9 108 0 59 -1 122 -2 140 l-1 32 -125 0 -125 0 0 -140z"/>
<path d="M8970 11204 c0 -24 -4 -33 -12 -28 -7 5 -8 3 -2 -7 11 -18 13 -99 2
-105 -5 -3 -5 -11 -1 -17 4 -7 8 -24 9 -39 1 -16 2 -32 3 -38 1 -6 50 -10 126
-10 l125 0 0 140 0 140 -125 0 -125 0 0 -36z"/>
<path d="M7840 10515 l0 -415 125 0 125 0 0 280 0 280 290 0 290 0 0 -140 0
-140 -140 0 -140 0 0 -140 0 -140 140 0 140 0 0 -140 0 -140 140 0 140 0 0
280 0 280 275 0 c238 0 275 2 275 15 0 8 7 15 15 15 13 0 15 21 15 125 l0 125
-430 0 -430 0 0 135 0 135 -415 0 -415 0 0 -415z"/>
<path d="M5260 10520 l0 -140 -140 0 -140 0 0 -140 0 -140 140 0 140 0 0 -140
0 -140 140 0 140 0 0 420 0 420 -140 0 -140 0 0 -140z"/>
<path d="M4430 10240 l0 -141 128 3 127 3 0 115 c0 177 14 160 -131 160 l-124
0 0 -140z"/>
<path d="M7260 10240 l0 -140 135 0 135 0 0 140 0 140 -135 0 -135 0 0 -140z"/>
<path d="M3010 10085 c0 -8 -4 -15 -10 -15 -6 0 -10 -48 -10 -125 l0 -125 135
0 135 0 0 140 0 140 -125 0 c-104 0 -125 -2 -125 -15z"/>
<path d="M4150 10085 c0 -8 -7 -15 -15 -15 -13 0 -15 -21 -15 -125 l0 -125
140 0 140 0 0 140 0 140 -125 0 c-104 0 -125 -2 -125 -15z"/>
<path d="M4700 9964 c0 -104 -3 -139 -14 -150 -11 -11 -44 -14 -135 -14 l-121
0 0 -140 0 -140 260 0 c224 0 260 2 260 15 0 8 7 15 15 15 13 0 15 36 15 260
0 224 -2 260 -15 260 -8 0 -15 7 -15 15 0 13 -21 15 -125 15 l-125 0 0 -136z"/>
<path d="M6420 10085 c0 -8 -4 -15 -10 -15 -6 0 -10 -52 -10 -135 l0 -135
-140 0 -140 0 0 -140 0 -140 -140 0 -140 0 0 -140 0 -140 -140 0 -140 0 0
-140 0 -140 140 0 140 0 0 -135 0 -135 140 0 140 0 0 135 0 135 275 0 275 0 0
140 0 140 -135 0 -135 0 0 140 0 140 290 0 290 0 0 -280 0 -280 140 0 140 0 0
-135 0 -135 845 0 845 0 0 135 0 135 -430 0 -430 0 0 118 c0 64 3 128 7 141 6
23 7 23 14 5 7 -16 8 -17 8 -1 1 15 14 17 121 17 100 0 120 3 120 15 0 8 7 15
15 15 13 0 15 51 15 400 0 349 -2 400 -15 400 -8 0 -15 7 -15 15 0 13 -20 15
-120 15 l-120 0 0 -280 c0 -247 -2 -279 -15 -273 -10 3 -15 0 -13 -8 2 -11
-23 -15 -124 -17 l-128 -3 0 -124 c0 -104 -2 -125 -15 -125 -8 0 -15 -7 -15
-15 0 -13 -22 -15 -140 -15 l-140 0 0 140 0 140 -135 0 -135 0 0 275 c0 238
-2 275 -15 275 -8 0 -15 7 -15 15 0 13 -21 15 -125 15 l-125 0 0 -140 c0 -118
-2 -140 -15 -140 -8 0 -15 -4 -15 -10 0 -6 -48 -10 -125 -10 -77 0 -125 4
-125 10 0 6 -7 10 -15 10 -13 0 -15 22 -15 140 l0 140 -125 0 c-104 0 -125 -2
-125 -15z m1110 -985 l0 -140 -135 0 -135 0 0 140 0 140 135 0 135 0 0 -140z"/>
<path d="M7560 10085 c0 -8 -7 -15 -15 -15 -13 0 -15 -36 -15 -260 0 -224 2
-260 15 -260 8 0 15 -7 15 -15 0 -13 21 -15 125 -15 l125 0 0 290 0 290 -125
0 c-104 0 -125 -2 -125 -15z"/>
<path d="M9250 9960 c0 -118 -2 -140 -15 -140 -8 0 -15 -4 -15 -10 0 -6 -48
-10 -125 -10 l-125 0 0 -36 c0 -19 -4 -33 -8 -30 -5 3 -9 -1 -9 -9 0 -8 4 -12
9 -9 4 3 8 -16 8 -41 0 -25 -4 -44 -9 -41 -8 5 -8 -22 -1 -31 3 -3 7 -35 9
-63 1 -19 8 -20 266 -20 229 0 265 2 265 15 0 8 7 15 15 15 13 0 15 36 15 260
0 224 -2 260 -15 260 -8 0 -15 7 -15 15 0 13 -21 15 -125 15 l-125 0 0 -140z"/>
<path d="M3290 9520 l0 -280 -150 0 -150 0 0 140 0 140 -140 0 -140 0 0 -280
0 -280 140 0 140 0 0 -135 0 -135 135 0 134 0 3 128 c2 95 6 126 16 125 6 -2
12 2 12 7 0 6 53 10 140 10 l140 0 0 140 0 140 135 0 135 0 0 140 0 140 -135
0 -135 0 0 140 0 140 -140 0 -140 0 0 -280z"/>
<path d="M5560 9660 l0 -140 125 0 125 0 0 140 0 140 -125 0 -125 0 0 -140z"/>
<path d="M160 9240 l0 -280 135 0 135 0 0 -275 c0 -238 2 -275 15 -275 8 0 15
-7 15 -15 0 -13 36 -15 265 -15 l265 0 0 140 0 140 -125 0 c-104 0 -125 2
-125 15 0 8 -7 15 -15 15 -13 0 -15 22 -15 135 l0 135 -140 0 -140 0 0 280 0
280 -135 0 -135 0 0 -280z"/>
<path d="M710 9395 c0 -104 2 -125 15 -125 8 0 15 -7 15 -15 0 -13 37 -15 275
-15 l275 0 0 -140 0 -140 280 0 280 0 0 140 0 140 140 0 140 0 0 140 0 140
-710 0 -710 0 0 -125z"/>
<path d="M4120 9240 l0 -280 -125 0 c-77 0 -125 -4 -125 -10 0 -5 -7 -10 -15
-10 -13 0 -15 -36 -15 -265 0 -229 2 -265 15 -265 8 0 15 -7 15 -15 0 -12 19
-15 110 -15 91 0 110 3 110 15 0 8 7 15 15 15 13 0 15 37 15 275 l0 275 140 0
140 0 0 280 0 280 -140 0 -140 0 0 -280z"/>
<path d="M4980 9380 l0 -140 -140 0 -140 0 0 -275 0 -275 420 0 420 0 0 135 0
135 -280 0 -280 0 0 140 0 140 280 0 280 0 0 140 0 140 -280 0 -280 0 0 -140z"/>
<path d="M8670 9380 l0 -140 140 0 140 0 0 140 0 140 -140 0 -140 0 0 -140z"/>
<path d="M9810 9380 l0 -140 135 0 135 0 0 -275 0 -275 140 0 140 0 0 125 c0
104 2 125 15 125 8 0 15 5 15 10 0 6 53 10 140 10 l140 0 0 -135 c0 -113 -2
-135 -15 -135 -8 0 -15 -7 -15 -15 0 -13 -21 -15 -125 -15 l-125 0 0 -280 0
-280 -140 0 c-87 0 -140 -4 -140 -10 0 -5 -7 -10 -15 -10 -13 0 -15 -36 -15
-265 l0 -265 140 0 140 0 0 125 c0 104 2 125 15 125 8 0 15 7 15 15 0 13 37
15 275 15 l275 0 0 -140 0 -140 140 0 140 0 0 140 0 140 -140 0 -140 0 0 135
0 135 280 0 280 0 0 140 0 140 -140 0 -140 0 0 140 0 140 -140 0 -140 0 0 290
0 290 140 0 140 0 0 140 0 140 -705 0 -705 0 0 -140z"/>
<path d="M2150 9100 l0 -140 140 0 140 0 0 125 c0 104 -2 125 -15 125 -8 0
-15 7 -15 15 0 13 -21 15 -125 15 l-125 0 0 -140z"/>
<path d="M11250 9225 c0 -8 -7 -15 -15 -15 -13 0 -15 -21 -15 -125 l0 -125
290 0 290 0 0 125 c0 77 -4 125 -10 125 -5 0 -10 7 -10 15 0 13 -36 15 -265
15 -229 0 -265 -2 -265 -15z"/>
<path d="M1880 8950 c0 -5 -7 -10 -15 -10 -13 0 -15 -21 -15 -125 l0 -125 140
0 140 0 0 135 0 135 -125 0 c-77 0 -125 -4 -125 -10z"/>
<path d="M9250 8825 l0 -135 140 0 140 0 0 125 c0 104 -2 125 -15 125 -8 0
-15 5 -15 10 0 6 -48 10 -125 10 l-125 0 0 -135z"/>
<path d="M1290 8520 l0 -140 -135 0 -135 0 0 -275 0 -275 135 0 135 0 0 -140
0 -140 140 0 140 0 0 140 0 140 140 0 140 0 0 135 0 135 -140 0 -140 0 0 140
0 140 140 0 140 0 0 -125 c0 -104 2 -125 15 -125 8 0 15 -7 15 -15 0 -13 22
-15 135 -15 l135 0 0 -135 0 -136 140 2 140 1 0 134 0 134 140 0 140 0 0 -135
0 -135 140 0 140 0 0 -155 0 -155 -140 0 -140 0 0 -125 0 -125 56 0 c41 0 53
-3 48 -12 -6 -10 -4 -10 7 0 7 6 26 12 42 12 20 0 26 -4 21 -12 -6 -10 -4 -10
7 0 7 6 26 12 42 12 20 0 26 -4 21 -12 -6 -10 -4 -10 8 0 9 7 18 9 21 5 3 -4
6 -64 6 -133 1 -69 6 -126 12 -128 5 -2 9 -10 9 -18 0 -12 43 -14 265 -14 229
0 265 2 265 15 0 8 7 15 15 15 13 0 15 20 15 120 l0 120 -140 0 c-118 0 -140
2 -140 15 0 8 -7 15 -15 15 -13 0 -15 53 -15 415 l0 415 -135 0 -135 0 0 140
0 140 -571 2 -571 3 1 138 2 137 -281 0 -280 0 0 -140z m280 -555 l0 -135
-140 0 -140 0 0 135 0 135 140 0 140 0 0 -135z"/>
<path d="M3290 8520 l0 -140 125 0 c104 0 125 2 125 15 0 8 7 15 15 15 13 0
15 21 15 125 l0 125 -140 0 -140 0 0 -140z"/>
<path d="M4430 8520 l0 -140 123 0 c92 0 124 3 125 13 4 36 7 225 4 245 -4 21
-8 22 -128 22 l-124 0 0 -140z"/>
<path d="M5560 8520 l0 -140 125 0 125 0 0 140 0 140 -125 0 -125 0 0 -140z"/>
<path d="M6400 8535 c0 -77 4 -125 10 -125 6 0 10 -7 10 -15 0 -13 38 -15 280
-15 l280 0 0 -140 0 -140 415 0 c270 0 415 -3 415 -10 0 -5 7 -10 15 -10 13 0
15 -36 15 -265 0 -229 -2 -265 -15 -265 -8 0 -15 -7 -15 -15 0 -13 -22 -15
-140 -15 l-140 0 0 -125 0 -125 66 0 c49 0 63 -3 58 -12 -6 -10 -4 -10 7 0 7
6 35 12 62 12 36 0 46 -3 41 -12 -6 -10 -4 -10 7 0 18 17 39 15 39 -3 0 -8 7
-15 15 -15 13 0 15 -37 15 -275 l0 -275 125 0 125 0 0 275 c0 238 2 275 15
275 8 0 15 7 15 15 0 11 12 15 51 15 37 0 48 -3 43 -12 -6 -10 -4 -10 8 0 22
18 114 12 110 -6 -1 -8 2 -11 8 -7 6 3 8 11 5 16 -4 5 5 9 19 9 l26 0 0 125 0
125 -135 0 c-113 0 -135 2 -135 15 0 8 -7 15 -15 15 -13 0 -15 21 -15 125 0
104 2 125 15 125 8 0 15 7 15 15 0 13 22 15 135 15 l135 0 0 -140 0 -140 280
0 280 0 0 415 0 415 -140 0 -140 0 0 -275 0 -275 -140 0 -140 0 0 275 0 275
-565 0 -565 0 0 140 0 140 -430 0 -430 0 0 -125z"/>
<path d="M8970 8644 c0 -8 -4 -13 -9 -10 -10 6 -10 -11 0 -29 5 -9 4 -71 -1
-77 -7 -10 -7 -37 1 -32 5 3 9 -21 9 -55 l0 -61 125 0 125 0 0 140 0 140 -125
0 c-107 0 -125 -2 -125 -16z"/>
<path d="M9531 8523 l1 -138 -141 -3 -141 -3 0 -140 0 -140 128 1 c70 1 133 1
140 1 9 -1 12 -63 12 -276 l0 -275 140 0 140 0 0 275 0 275 135 0 135 0 0 140
0 140 -135 0 -135 0 0 -140 0 -141 -141 3 -141 3 1 135 c2 109 5 138 18 150 9
8 13 9 9 3 -6 -10 19 -13 108 -13 96 0 116 3 116 15 0 8 7 15 15 15 13 0 15
21 15 125 l0 125 -140 0 -141 0 2 -137z"/>
<path d="M11530 8520 l0 -140 125 0 c104 0 125 2 125 15 0 8 5 15 10 15 6 0
10 48 10 125 l0 125 -135 0 -135 0 0 -140z"/>
<path d="M3570 8240 l0 -140 135 0 135 0 0 -275 0 -275 140 0 140 0 0 140 0
140 140 0 140 0 0 135 0 135 -280 0 -280 0 0 140 0 140 -135 0 -135 0 0 -140z"/>
<path d="M4700 8105 l0 -275 -135 0 -135 0 0 -140 c0 -118 -2 -140 -15 -140
-8 0 -15 -7 -15 -15 0 -13 -22 -15 -140 -15 l-140 0 0 -125 0 -125 71 0 c53 0
68 -3 63 -12 -6 -10 -4 -10 8 0 22 18 114 12 110 -6 -1 -8 2 -11 8 -7 6 3 8
11 5 16 -4 5 -1 9 4 9 6 0 11 -7 11 -15 0 -8 7 -15 15 -15 13 0 15 -22 15
-135 l0 -135 260 0 c224 0 260 2 260 15 0 8 7 15 15 15 13 0 15 68 15 550 l0
550 140 0 140 0 0 -135 0 -135 25 0 c21 0 25 -5 25 -30 0 -16 -4 -30 -10 -30
-5 0 -10 -7 -10 -15 0 -8 -7 -15 -15 -15 -9 0 -15 -9 -15 -25 0 -16 -6 -25
-15 -25 -12 0 -15 -13 -15 -55 0 -42 -3 -55 -15 -55 -11 0 -15 -12 -15 -45 0
-25 -4 -45 -10 -45 -6 0 -10 -80 -10 -220 0 -140 4 -220 10 -220 6 0 10 -18
10 -40 0 -29 4 -40 15 -40 11 0 15 -12 15 -45 0 -33 4 -45 15 -45 11 0 15 -11
15 -40 0 -29 4 -40 15 -40 13 0 20 -18 16 -42 0 -5 3 -8 8 -8 15 0 20 -51 5
-57 -8 -3 -14 -11 -14 -19 0 -8 -7 -14 -15 -14 -13 0 -15 -21 -15 -125 l0
-125 -85 0 c-69 0 -85 3 -85 15 0 9 -9 15 -25 15 -16 0 -25 -6 -25 -15 0 -10
-10 -15 -30 -15 l-30 0 0 125 c0 104 -2 125 -15 125 -8 0 -15 7 -15 15 0 13
-37 15 -275 15 l-275 0 0 140 0 140 -140 0 -140 0 0 -140 0 -140 -140 0 -140
0 0 -140 0 -140 280 0 c180 0 280 -4 280 -10 0 -5 7 -10 15 -10 13 0 15 -21
15 -125 l0 -125 80 0 c64 0 80 -3 80 -15 0 -10 10 -15 30 -15 20 0 30 -5 30
-15 0 -8 -7 -15 -15 -15 -12 0 -15 -16 -15 -85 0 -69 -3 -85 -15 -85 -9 0 -15
-9 -15 -25 0 -14 -4 -25 -10 -25 -5 0 -10 -7 -10 -15 0 -12 -14 -15 -70 -15
l-70 0 0 -140 0 -140 -140 0 c-87 0 -140 -4 -140 -10 0 -5 -7 -10 -15 -10 -13
0 -15 -36 -15 -265 l0 -265 129 0 c87 0 132 -4 137 -12 5 -7 2 -9 -7 -4 -8 4
-6 1 4 -7 21 -17 22 -37 2 -37 -8 0 -14 -3 -14 -7 4 -25 -3 -43 -16 -43 -8 0
-15 -7 -15 -15 0 -8 -4 -15 -10 -15 -5 0 -10 -7 -10 -15 0 -8 -7 -15 -15 -15
-9 0 -15 -9 -15 -25 0 -16 -6 -25 -15 -25 -8 0 -15 -7 -15 -15 0 -8 -7 -15
-15 -15 -10 0 -15 -10 -15 -30 0 -30 -1 -30 -55 -30 l-55 0 0 140 0 140 -415
0 -415 0 0 -275 0 -275 -430 0 -430 0 0 135 0 135 125 0 c104 0 125 2 125 15
0 8 7 15 15 15 13 0 15 21 15 125 0 104 2 125 15 125 8 0 15 7 15 15 0 13 21
15 125 15 l125 0 0 140 0 140 425 0 425 0 0 135 0 135 140 0 140 0 0 140 0
140 140 0 140 0 0 140 0 140 -280 0 -280 0 0 -280 0 -280 -425 0 -425 0 0 280
0 280 -140 0 -140 0 0 -280 0 -280 -140 0 -140 0 0 420 0 420 -140 0 -140 0 0
-125 c0 -77 -4 -125 -10 -125 -5 0 -10 -7 -10 -15 0 -13 -22 -15 -140 -15
l-140 0 0 -125 c0 -104 2 -125 15 -125 8 0 15 -7 15 -15 0 -13 22 -15 135 -15
l135 0 0 -140 0 -141 128 1 c70 1 133 1 140 1 9 -1 12 -35 12 -136 0 -113 -2
-135 -15 -135 -8 0 -15 -7 -15 -15 0 -13 -21 -15 -125 -15 l-125 0 0 -125 c0
-77 -4 -125 -10 -125 -5 0 -10 -7 -10 -15 0 -13 -53 -15 -420 -15 l-420 0 0
155 0 155 140 0 140 0 0 135 0 135 -705 0 -705 0 0 -275 0 -275 125 0 c104 0
125 -2 125 -15 0 -8 5 -15 10 -15 6 0 10 -53 10 -140 l0 -140 -135 0 -135 0 0
-275 0 -275 135 0 135 0 0 140 0 140 280 0 280 0 0 135 0 135 150 0 150 0 0
-135 0 -135 -135 0 -135 0 0 -430 0 -430 121 0 c91 0 124 3 135 14 11 11 14
46 14 150 l0 136 280 0 280 0 0 125 0 125 -125 0 c-104 0 -125 2 -125 15 0 8
-7 15 -15 15 -13 0 -15 37 -15 275 l0 275 290 0 290 0 0 -135 0 -136 138 2
137 1 3 -141 3 -141 279 0 280 0 0 -140 0 -140 135 0 135 0 0 125 c0 104 2
125 15 125 8 0 15 7 15 15 0 13 22 15 140 15 l140 0 0 -140 0 -140 125 0 c104
0 125 -2 125 -15 0 -8 5 -15 10 -15 6 0 10 -52 10 -135 l0 -135 -135 0 -135 0
0 -140 0 -140 135 0 135 0 0 -140 c0 -87 -4 -140 -10 -140 -5 0 -10 -7 -10
-15 0 -8 -7 -15 -15 -15 -8 0 -15 7 -15 15 0 8 -7 15 -15 15 -8 0 -15 -7 -15
-16 0 -10 -7 -14 -17 -12 -10 2 -17 10 -16 16 2 7 -2 12 -8 12 -6 0 -9 -7 -5
-15 4 -10 -1 -15 -14 -15 -11 0 -20 7 -20 15 0 8 -7 15 -15 15 -8 0 -15 -7
-15 -16 0 -10 -7 -14 -17 -12 -10 2 -17 10 -16 16 2 7 -2 12 -8 12 -6 0 -9 -7
-5 -15 4 -10 -1 -15 -14 -15 -19 0 -20 7 -20 140 0 118 -2 140 -15 140 -8 0
-15 7 -15 15 0 13 -53 15 -415 15 l-415 0 0 140 0 140 -140 0 -140 0 0 135 0
135 -290 0 -290 0 0 -125 c0 -104 2 -125 15 -125 8 0 15 -4 15 -10 0 -6 52
-10 135 -10 l135 0 0 -140 0 -140 -135 0 c-113 0 -135 -2 -135 -15 0 -8 -7
-15 -15 -15 -13 0 -15 -21 -15 -125 l0 -125 140 0 c118 0 140 -2 140 -15 0 -8
5 -15 10 -15 17 0 13 -239 -4 -256 -11 -11 -46 -14 -150 -14 l-136 0 0 -125
c0 -104 2 -125 15 -125 8 0 15 -7 15 -15 0 -13 37 -15 275 -15 l275 0 0 -140
0 -140 280 0 280 0 0 -275 0 -275 135 0 135 0 0 275 0 275 155 0 155 0 0 -275
0 -275 135 0 135 0 0 275 0 275 280 0 280 0 0 140 0 140 290 0 290 0 0 -275 0
-275 -140 0 -140 0 0 -140 c0 -87 -4 -140 -10 -140 -5 0 -10 -7 -10 -15 0 -13
-21 -15 -125 -15 -104 0 -125 2 -125 15 0 8 -7 15 -15 15 -13 0 -15 22 -15
140 l0 140 -125 0 c-104 0 -125 -2 -125 -15 0 -8 -7 -15 -15 -15 -13 0 -15
-99 -15 -835 0 -736 2 -835 15 -835 8 0 15 -4 15 -10 0 -6 140 -10 400 -10
260 0 400 4 400 10 0 6 7 10 15 10 13 0 15 22 15 140 l0 140 140 0 140 0 0
-140 c0 -118 2 -140 15 -140 8 0 15 -4 15 -10 0 -6 48 -10 125 -10 l125 0 0
135 c0 83 4 135 10 135 6 0 10 7 10 15 0 13 21 15 125 15 l125 0 0 125 c0 104
2 125 15 125 8 0 15 7 15 15 0 13 22 15 140 15 l140 0 0 -140 0 -140 140 0
140 0 0 140 0 140 135 0 135 0 0 275 0 275 -135 0 -135 0 0 140 c0 87 4 140
10 140 6 0 10 7 10 15 0 13 21 15 125 15 l126 0 -2 140 -1 140 -134 0 -134 0
0 275 0 275 -140 0 -140 0 0 -140 0 -140 -280 0 -280 0 0 -135 0 -135 140 0
140 0 0 -295 0 -295 140 0 140 0 0 -135 0 -135 -290 0 -290 0 0 135 0 135
-140 0 -140 0 0 -275 0 -275 -140 0 -140 0 0 140 0 140 -139 0 c-123 0 -140 2
-147 18 -12 27 -12 215 0 231 9 12 8 13 -3 6 -10 -5 -12 -4 -7 3 5 8 50 12
137 12 108 0 129 2 129 15 0 8 7 15 15 15 13 0 15 22 15 140 l0 140 280 0 280
0 0 140 0 140 -140 0 -140 0 0 135 0 135 140 0 140 0 0 140 0 140 275 0 c238
0 275 2 275 15 0 8 7 15 15 15 13 0 15 22 15 135 l0 135 140 0 140 0 0 -135
c0 -83 4 -135 10 -135 6 0 10 -7 10 -15 0 -13 21 -15 125 -15 l126 0 -1 290
c-1 195 -5 290 -12 290 -5 0 -8 -7 -4 -15 4 -10 -1 -15 -14 -15 -11 0 -20 7
-20 15 0 8 -7 15 -15 15 -8 0 -15 -7 -15 -15 0 -8 -7 -15 -15 -15 -8 0 -15 7
-15 15 0 8 -7 15 -15 15 -8 0 -15 -6 -15 -12 0 -8 -16 -14 -40 -15 -30 -2 -40
1 -40 12 0 8 -7 15 -15 15 -8 0 -15 -6 -15 -12 0 -8 -16 -14 -40 -15 -30 -2
-40 1 -40 12 0 8 -7 15 -15 15 -8 0 -15 -6 -15 -12 0 -8 -16 -14 -40 -15 -30
-2 -40 1 -40 12 0 8 -7 15 -15 15 -8 0 -15 -7 -15 -16 0 -10 -7 -14 -17 -12
-10 2 -17 10 -16 16 2 7 -2 12 -8 12 -6 0 -9 -7 -5 -15 4 -10 -1 -15 -14 -15
-11 0 -20 7 -20 15 0 8 -7 15 -15 15 -8 0 -15 -7 -15 -16 0 -10 -7 -14 -17
-12 -10 2 -17 10 -16 16 2 7 -2 12 -8 12 -6 0 -9 -7 -5 -15 4 -10 -1 -15 -14
-15 -11 0 -20 7 -20 15 0 8 -7 15 -15 15 -8 0 -15 -7 -15 -15 0 -8 -7 -15 -15
-15 -8 0 -15 7 -15 15 0 8 -7 15 -15 15 -8 0 -15 -6 -15 -12 0 -8 -16 -14 -40
-15 -30 -2 -40 1 -40 12 0 8 -7 15 -15 15 -13 0 -15 22 -15 140 l0 140 -125 0
-125 0 0 -276 c0 -225 -3 -278 -14 -290 -12 -12 -122 -14 -720 -14 l-706 0 0
150 0 150 430 0 430 0 0 120 c0 161 1 160 -160 160 -100 0 -120 3 -120 15 0 8
-3 15 -7 15 -5 0 -9 61 -9 135 -1 74 3 135 7 135 5 0 9 7 9 15 0 12 14 15 70
15 56 0 70 3 70 15 0 11 12 15 45 15 33 0 45 4 45 15 0 9 9 15 25 15 16 0 25
6 25 15 0 10 10 15 30 15 17 0 30 5 30 10 0 6 11 10 25 10 16 0 25 6 25 15 0
8 7 15 15 15 8 0 15 7 15 15 0 8 7 15 15 15 8 0 15 7 15 15 0 8 5 15 11 15 14
0 39 25 39 39 0 6 7 11 15 11 8 0 15 7 15 15 0 8 7 15 15 15 8 0 15 7 15 15 0
8 5 15 11 15 22 0 39 25 39 60 0 11 7 20 15 20 8 0 15 7 15 15 0 8 7 15 15 15
9 0 15 9 15 25 0 16 6 25 15 25 8 0 15 7 15 15 0 8 7 15 15 15 8 0 15 7 15 15
0 12 13 15 55 15 42 0 55 -3 55 -15 0 -8 5 -15 10 -15 6 0 10 -48 10 -125 l0
-125 125 0 125 0 0 125 c0 104 2 125 15 125 8 0 15 7 15 15 0 13 22 15 140 15
l140 0 0 140 0 140 140 0 140 0 0 55 c0 52 1 55 25 55 16 0 25 6 25 15 0 8 7
15 15 15 8 0 15 5 15 10 0 6 7 10 15 10 8 0 15 7 15 15 0 8 9 15 19 15 11 0
23 5 27 12 4 6 3 8 -4 4 -6 -3 -14 -2 -17 4 -4 6 -3 10 2 9 4 -1 25 -1 46 0
26 1 37 6 37 16 0 9 9 15 25 15 21 0 25 -5 25 -30 0 -20 5 -30 15 -30 12 0 15
-17 15 -95 l0 -95 280 0 280 0 0 -140 0 -140 845 0 845 0 0 415 0 415 -140 0
-140 0 0 -275 0 -275 -290 0 -290 0 0 135 0 135 135 0 c113 0 135 2 135 15 0
8 7 15 15 15 13 0 15 21 15 125 l0 125 -275 0 -275 0 0 -125 c0 -104 -2 -125
-15 -125 -8 0 -15 -7 -15 -15 0 -13 -22 -15 -140 -15 l-140 0 0 -135 0 -135
-135 0 -135 0 0 150 c0 93 4 150 10 150 6 0 10 7 10 15 0 12 13 15 55 15 42 0
55 3 55 15 0 11 12 15 45 15 25 0 45 5 45 10 0 6 7 10 15 10 8 0 15 7 15 15 0
8 5 15 10 15 6 0 10 7 10 15 0 8 7 15 15 15 8 0 15 7 15 15 0 8 7 15 15 15 8
0 15 7 15 15 0 8 5 15 11 15 14 0 39 25 39 39 0 6 7 11 15 11 8 0 15 7 15 15
0 12 14 15 70 15 l70 0 0 125 0 125 -40 0 c-29 0 -40 4 -40 15 0 8 -7 15 -15
15 -8 0 -15 5 -15 10 0 6 7 10 15 10 8 0 15 7 15 15 0 8 5 15 11 15 5 0 7 5 4
11 -4 6 2 13 14 16 14 3 21 13 21 29 0 15 6 24 15 24 9 0 15 -9 15 -25 0 -16
6 -25 15 -25 11 0 15 -11 15 -40 l0 -40 555 0 555 0 0 135 0 135 -430 0 -430
0 0 140 0 140 430 0 430 0 0 140 0 140 -515 0 c-451 0 -515 2 -515 15 0 8 -7
15 -15 15 -13 0 -15 22 -15 135 0 83 -4 135 -10 135 -5 0 -10 14 -10 30 0 20
-5 30 -15 30 -9 0 -15 9 -15 25 0 16 -6 25 -15 25 -12 0 -15 16 -15 85 l0 85
-85 0 c-69 0 -85 3 -85 15 0 11 -11 15 -40 15 -29 0 -40 4 -40 15 0 9 -9 15
-25 15 -14 0 -25 5 -25 10 0 6 -63 10 -170 10 l-170 0 0 30 c0 20 5 30 15 30
11 0 15 11 15 40 0 29 4 40 15 40 10 0 15 10 15 30 l0 30 150 0 150 0 0 135 0
135 -124 0 -124 0 -1 113 c-1 61 -6 114 -11 115 -13 5 -13 52 0 52 6 0 10 7
10 15 0 13 21 15 125 15 l125 0 0 140 0 140 -205 0 -205 0 0 25 c0 16 -6 25
-15 25 -8 0 -15 7 -15 15 0 8 -7 15 -15 15 -8 0 -15 7 -15 15 0 8 -7 15 -15
15 -9 0 -15 9 -15 25 0 14 -4 25 -10 25 -5 0 -10 7 -10 15 0 8 -7 15 -15 15
-8 0 -15 7 -15 15 0 8 -7 15 -15 15 -8 0 -15 7 -15 15 0 8 -7 15 -15 15 -8 0
-15 5 -15 10 0 6 -11 10 -25 10 -16 0 -25 6 -25 15 0 8 -7 15 -15 15 -8 0 -15
7 -15 15 0 10 -10 15 -30 15 -20 0 -30 5 -30 15 0 9 -9 15 -25 15 -16 0 -25 6
-25 15 0 8 -7 15 -15 15 -8 0 -15 5 -15 10 0 6 -11 10 -25 10 -16 0 -25 6 -25
15 0 12 -13 15 -60 15 -47 0 -60 3 -60 15 0 12 -13 15 -55 15 -42 0 -55 3 -55
15 0 8 -4 15 -10 15 -5 0 -10 11 -10 25 l0 25 -280 0 -280 0 0 -55 c0 -42 -3
-55 -15 -55 -8 0 -15 -5 -15 -11 0 -19 -28 -39 -54 -39 -16 0 -26 -6 -26 -15
0 -10 -10 -15 -30 -15 -16 0 -30 -5 -30 -11 0 -12 -29 -43 -42 -45 -4 -1 -15
-2 -23 -3 -8 0 -15 -8 -15 -16 0 -9 -9 -15 -25 -15 l-25 0 0 140 0 140 -420 0
-420 0 0 -275z m1724 -180 c3 -10 19 -15 46 -15 29 0 40 -4 40 -15 0 -8 6 -15
14 -15 7 0 26 -6 41 -14 15 -8 34 -12 41 -9 8 3 14 0 14 -7 0 -6 -4 -9 -9 -5
-5 3 -13 1 -16 -5 -4 -6 -3 -10 2 -9 27 5 53 -3 53 -16 0 -8 5 -15 10 -15 6 0
10 -7 10 -15 0 -8 7 -15 15 -15 8 0 15 -7 15 -15 0 -8 7 -15 15 -15 8 0 15 -4
15 -10 0 -5 7 -10 15 -10 8 0 15 -7 15 -15 0 -8 5 -15 10 -15 6 0 10 -11 10
-24 0 -14 4 -28 10 -31 5 -3 8 0 7 7 -2 7 1 3 7 -9 5 -13 16 -23 23 -23 9 0
13 -15 13 -45 0 -33 4 -45 15 -45 9 0 15 -10 15 -26 0 -14 4 -23 9 -19 16 9
20 -7 22 -88 1 -43 5 -80 9 -82 8 -5 7 -45 -1 -60 -3 -5 -7 -39 -8 -75 -2 -35
-7 -71 -13 -80 -8 -13 -9 -12 -4 3 3 9 1 17 -4 17 -8 0 -16 -55 -11 -82 0 -5
-6 -8 -14 -8 -13 0 -22 -40 -16 -73 1 -5 -3 -6 -9 -2 -6 3 -7 11 -4 17 4 7 2
8 -4 4 -7 -4 -12 -18 -12 -32 0 -15 -6 -24 -15 -24 -8 0 -15 -7 -15 -15 0 -8
-4 -15 -10 -15 -5 0 -10 -12 -10 -26 0 -19 -4 -25 -15 -20 -10 4 -15 -1 -15
-14 0 -11 -7 -20 -15 -20 -8 0 -15 -7 -15 -15 0 -8 -6 -15 -14 -15 -7 0 -19
-7 -26 -15 -7 -8 -16 -13 -20 -10 -5 3 -12 0 -16 -6 -4 -7 -3 -9 4 -5 6 3 14
2 17 -4 4 -6 3 -10 -2 -9 -27 5 -53 -3 -53 -16 0 -10 -10 -15 -30 -15 -20 0
-30 -5 -30 -15 0 -9 -9 -15 -25 -15 -16 0 -25 -6 -25 -15 0 -10 -10 -15 -29
-15 -17 0 -33 -4 -36 -10 -4 -6 -78 -10 -191 -10 -116 0 -184 4 -184 10 0 12
-83 14 -94 3 -4 -5 -12 -9 -17 -9 -5 -1 -13 -2 -19 -3 -5 0 -10 -8 -10 -16 0
-10 -10 -15 -31 -15 -19 0 -28 -4 -24 -11 4 -6 -2 -13 -14 -16 -12 -3 -21 -12
-21 -19 0 -8 -11 -14 -27 -15 -25 0 -26 -1 -8 -9 17 -7 15 -9 -11 -9 -20 -1
-34 5 -38 15 -3 8 -11 12 -16 9 -8 -5 -10 12 -9 49 2 40 6 53 14 46 7 -6 11
-3 12 11 1 13 -2 17 -10 12 -9 -5 -9 -3 0 8 12 15 16 46 14 127 -1 39 -5 52
-16 52 -8 0 -15 7 -15 15 0 8 -7 15 -15 15 -8 0 -15 9 -15 21 0 11 -5 17 -10
14 -6 -4 -10 -3 -9 2 4 24 -3 43 -16 43 -10 0 -15 10 -15 30 0 20 -5 30 -15
30 -11 0 -15 11 -15 40 0 26 -4 40 -13 40 -9 0 -14 17 -16 52 -1 28 -5 57 -9
62 -9 16 -11 37 -3 31 4 -2 8 2 8 10 0 8 -4 12 -9 9 -4 -3 -8 11 -8 31 0 25 4
34 12 29 7 -4 8 -3 4 4 -12 19 -16 53 -5 47 8 -5 15 64 10 103 -1 6 3 12 9 12
6 0 9 -4 5 -9 -3 -5 -1 -13 5 -16 6 -4 10 -3 9 2 -1 4 -1 29 0 56 1 35 5 47
16 47 10 0 15 10 15 30 0 17 5 30 11 30 19 0 39 28 39 54 0 16 6 26 15 26 8 0
15 7 15 15 0 8 7 15 15 15 8 0 15 5 15 10 0 6 7 10 15 10 8 0 15 7 15 15 0 8
7 15 15 15 8 0 15 7 15 15 0 8 5 15 10 15 6 0 10 7 10 15 0 10 10 15 30 15 20
0 30 5 30 15 0 8 9 15 20 15 11 0 20 5 20 10 0 6 9 10 20 10 11 0 20 7 20 15
0 8 4 15 10 15 5 0 7 -8 4 -17 -5 -17 -5 -17 6 0 6 10 23 17 40 17 20 0 30 5
30 15 0 13 28 15 189 15 159 0 190 -2 195 -15z m-1584 -1540 c0 -20 -5 -25
-25 -25 -16 0 -25 -6 -25 -15 0 -8 -7 -15 -15 -15 -8 0 -15 -7 -15 -15 0 -8
-7 -15 -15 -15 -8 0 -15 -7 -15 -15 0 -8 -7 -15 -15 -15 -10 0 -15 10 -15 28
0 16 -3 32 -7 36 -11 11 -10 49 2 63 6 7 37 12 78 13 65 0 67 -1 67 -25z
m2580 15 c0 -5 14 -10 30 -10 20 0 30 -5 30 -15 0 -8 7 -15 15 -15 10 0 15
-10 15 -30 0 -16 5 -30 10 -30 6 0 10 -33 10 -80 0 -47 -4 -80 -10 -80 -5 0
-10 -20 -10 -45 0 -33 -4 -45 -15 -45 -8 0 -15 -7 -15 -15 0 -8 -7 -15 -15
-15 -9 0 -15 -9 -15 -25 0 -16 -6 -25 -15 -25 -8 0 -15 -7 -15 -15 0 -8 -7
-15 -15 -15 -8 0 -15 -7 -15 -15 0 -9 -9 -15 -25 -15 -14 0 -25 -4 -25 -10 0
-5 -7 -10 -15 -10 -8 0 -15 -7 -15 -15 0 -9 -9 -15 -25 -15 -16 0 -25 -6 -25
-15 0 -11 -12 -15 -45 -15 -33 0 -45 -4 -45 -15 0 -9 -9 -15 -25 -15 -14 0
-24 -3 -24 -7 5 -31 -3 -73 -13 -71 -6 2 -14 -5 -16 -14 -2 -11 2 -18 12 -18
10 0 16 -9 16 -25 0 -14 5 -25 10 -25 6 0 10 -7 10 -15 0 -10 10 -15 30 -15
20 0 30 5 30 15 0 11 11 15 40 15 22 0 40 5 40 10 0 6 7 10 15 10 8 0 15 7 15
15 0 8 7 15 15 15 8 0 15 7 15 15 0 8 7 15 15 15 8 0 15 7 15 15 0 8 5 15 10
15 6 0 10 7 10 15 0 11 12 15 45 15 33 0 45 -4 45 -15 0 -8 7 -15 15 -15 12 0
15 -14 15 -70 0 -56 -3 -70 -15 -70 -8 0 -15 -7 -15 -15 0 -8 -7 -15 -15 -15
-8 0 -15 -7 -15 -15 0 -8 -7 -15 -15 -15 -8 0 -15 -4 -15 -10 0 -5 -7 -10 -15
-10 -8 0 -15 -7 -15 -15 0 -9 -9 -15 -25 -15 -16 0 -25 -6 -25 -15 0 -14 -17
-20 -47 -16 -7 1 -13 -5 -13 -14 0 -8 -4 -15 -10 -15 -5 0 -10 -7 -10 -15 0
-12 -13 -15 -60 -15 -33 0 -60 -4 -60 -10 0 -5 -11 -10 -25 -10 -14 0 -25 5
-25 10 0 6 -18 10 -40 10 -29 0 -40 4 -40 15 0 8 -7 15 -15 15 -8 0 -15 7 -15
15 0 8 -7 15 -15 15 -13 0 -21 25 -16 53 0 4 -6 7 -14 7 -13 0 -15 28 -15 190
0 120 -4 190 -10 190 -6 0 -10 -33 -10 -80 0 -64 -3 -80 -15 -80 -10 0 -15
-10 -15 -30 0 -20 -5 -30 -15 -30 -11 0 -15 -11 -15 -40 0 -29 -4 -40 -15 -40
-10 0 -15 -10 -15 -30 0 -16 -5 -30 -11 -30 -19 0 -39 -28 -39 -54 0 -16 -6
-26 -15 -26 -8 0 -15 -7 -15 -15 0 -8 -7 -15 -15 -15 -8 0 -15 -7 -15 -15 0
-8 -7 -15 -15 -15 -8 0 -15 -4 -15 -10 0 -6 -43 -10 -110 -10 -67 0 -110 4
-110 10 0 6 -11 10 -25 10 -14 0 -25 -4 -25 -10 0 -5 -7 -10 -15 -10 -12 0
-15 -18 -15 -100 0 -82 3 -100 15 -100 8 0 15 7 15 15 0 13 21 15 125 15 104
0 125 2 125 15 0 12 17 15 95 15 78 0 95 3 95 15 0 13 22 15 140 15 87 0 140
4 140 10 0 6 18 10 40 10 22 0 40 -4 40 -10 0 -5 18 -10 40 -10 29 0 40 -4 40
-15 0 -8 7 -15 15 -15 12 0 15 -13 15 -55 0 -42 -3 -55 -15 -55 -8 0 -15 -7
-15 -15 0 -11 -11 -15 -40 -15 -29 0 -40 -4 -40 -15 0 -12 -16 -15 -85 -15
-69 0 -85 -3 -85 -15 0 -13 -22 -15 -136 -15 -87 0 -133 -4 -129 -10 4 -6 -37
-10 -114 -10 -101 0 -121 -2 -121 -15 0 -12 -14 -15 -65 -15 -51 0 -65 -3 -65
-15 0 -11 -12 -15 -45 -15 -41 0 -45 -2 -45 -25 0 -14 -4 -25 -10 -25 -5 0
-10 -13 -10 -30 l0 -30 -70 0 -70 0 0 40 0 40 -85 0 c-50 0 -85 -4 -85 -10 0
-5 -25 -10 -55 -10 -42 0 -55 -3 -55 -15 0 -12 -16 -15 -77 -16 -43 -1 -81 -1
-85 0 -5 0 -8 -6 -8 -14 0 -12 -16 -15 -80 -15 -64 0 -80 -3 -80 -15 0 -11
-12 -15 -45 -15 -33 0 -45 -4 -45 -15 0 -12 -13 -15 -55 -15 -30 0 -55 -4 -55
-10 0 -5 -11 -10 -25 -10 -16 0 -25 -6 -25 -15 0 -8 -7 -15 -15 -15 -11 0 -15
-12 -16 -40 -2 -54 -3 -57 -13 -67 -5 -4 -6 -3 -2 4 3 6 2 15 -4 18 -6 4 -10
3 -9 -2 1 -4 1 -29 0 -55 -1 -36 -5 -48 -16 -48 -10 0 -15 -10 -15 -30 0 -16
-4 -30 -10 -30 -5 0 -10 -13 -10 -30 0 -20 -5 -30 -15 -30 -9 0 -15 -9 -15
-25 0 -16 -6 -25 -15 -25 -10 0 -15 -10 -15 -30 0 -20 -5 -30 -15 -30 -9 0
-15 -9 -15 -25 0 -16 -6 -25 -15 -25 -8 0 -15 -7 -15 -15 0 -8 -4 -15 -10 -15
-5 0 -10 -13 -10 -30 0 -20 -5 -30 -15 -30 -8 0 -15 -4 -15 -10 0 -5 -7 -10
-15 -10 -8 0 -15 -7 -15 -15 0 -8 -7 -15 -15 -15 -8 0 -15 -7 -15 -15 0 -8 -4
-15 -10 -15 -5 0 -10 -7 -10 -15 0 -8 -7 -15 -15 -15 -8 0 -15 -4 -15 -10 0
-5 -7 -10 -15 -10 -8 0 -15 -7 -15 -15 0 -9 -9 -15 -25 -15 -16 0 -25 -6 -25
-15 0 -11 -12 -15 -45 -15 -33 0 -45 -4 -45 -15 0 -12 -13 -15 -55 -15 -42 0
-55 3 -55 15 0 9 -9 15 -25 15 -16 0 -25 6 -25 15 0 8 -7 15 -15 15 -8 0 -15
7 -15 15 0 8 -7 15 -15 15 -8 0 -15 5 -15 10 0 6 -7 10 -15 10 -10 0 -15 10
-15 30 0 20 -5 30 -15 30 -12 0 -15 17 -15 95 0 78 3 95 15 95 12 0 15 13 15
55 0 42 3 55 15 55 8 0 15 7 15 15 0 8 7 15 15 15 10 0 15 10 15 30 0 20 5 30
15 30 9 0 15 9 15 25 0 14 5 25 10 25 6 0 10 7 10 15 0 8 7 15 15 15 8 0 15 7
15 15 0 8 7 15 15 15 9 0 15 9 15 25 0 20 5 25 25 25 23 0 32 18 26 53 -1 4 4
7 11 6 31 -4 48 2 48 16 0 8 7 15 15 15 8 0 15 5 15 10 0 6 7 10 15 10 8 0 15
7 15 15 0 9 9 15 25 15 16 0 25 6 25 15 0 8 7 15 15 15 8 0 15 7 15 15 0 9 9
15 25 15 16 0 25 6 25 15 0 10 10 15 30 15 17 0 30 5 30 10 0 6 18 10 40 10
29 0 40 4 40 15 0 8 7 15 15 15 10 0 15 10 15 30 0 20 5 30 15 30 11 0 15 11
15 40 0 29 4 40 15 40 12 0 15 13 15 55 0 30 5 55 10 55 6 0 10 7 10 15 0 9
-9 15 -25 15 -16 0 -25 -6 -25 -15 0 -10 -10 -15 -30 -15 -20 0 -30 -5 -30
-15 0 -12 -16 -15 -80 -15 -64 0 -80 3 -80 15 0 8 -7 15 -15 15 -8 0 -15 7
-15 15 0 8 -7 15 -15 15 -9 0 -15 9 -15 25 0 16 -6 25 -15 25 -12 0 -15 14
-15 70 0 56 3 70 15 70 12 0 15 13 15 55 0 42 3 55 15 55 12 0 15 13 15 55 0
42 3 55 15 55 11 0 15 12 15 51 0 31 4 48 10 44 6 -4 10 10 10 34 0 30 4 41
15 41 11 0 15 12 15 45 0 35 3 43 15 39 12 -5 15 4 15 50 0 43 3 56 15 56 8 0
14 6 13 13 -2 8 12 13 40 15 33 2 42 0 42 -12 0 -9 7 -16 15 -16 8 0 15 -4 15
-10 0 -5 7 -10 15 -10 12 0 15 -13 15 -55 0 -42 -3 -55 -15 -55 -11 0 -15 -13
-15 -54 0 -39 -4 -55 -15 -60 -8 -3 -15 -9 -14 -13 6 -34 -3 -73 -16 -73 -12
0 -15 -13 -15 -55 0 -42 -3 -55 -15 -55 -12 0 -15 -14 -15 -70 l0 -70 60 0
c47 0 60 3 60 15 0 8 5 15 10 15 6 0 10 14 10 30 0 20 5 30 15 30 8 0 15 5 15
10 0 6 7 10 15 10 10 0 15 10 15 33 0 17 5 39 11 47 9 13 10 12 5 -3 -3 -11
-2 -16 4 -12 6 3 10 22 10 41 0 19 5 34 10 34 6 0 10 14 10 30 0 20 5 30 15
30 11 0 15 11 15 40 0 29 4 40 15 40 11 0 15 12 16 43 1 23 1 46 0 50 -1 4 6
10 14 13 9 4 15 19 15 35 0 19 5 29 15 29 11 0 15 11 15 40 0 22 5 40 10 40 6
0 10 7 10 15 0 8 7 15 15 15 8 0 15 7 15 15 0 8 7 15 15 15 8 0 15 5 15 10 0
6 11 10 25 10 16 0 25 6 25 15 0 10 10 15 30 15 20 0 30 -5 30 -15 0 -9 9 -15
25 -15 20 0 25 -5 25 -25 0 -14 -4 -25 -10 -25 -5 0 -10 -5 -10 -11 0 -5 6 -7
13 -3 10 6 10 4 0 -7 -7 -7 -13 -30 -13 -51 0 -27 -4 -38 -15 -38 -11 0 -15
-12 -15 -45 0 -33 -4 -45 -15 -45 -12 0 -15 -13 -15 -55 0 -39 -4 -55 -13 -55
-9 0 -14 -17 -16 -52 -1 -29 -6 -54 -12 -56 -5 -2 -9 -21 -9 -43 0 -28 -4 -39
-15 -39 -12 0 -15 -13 -15 -55 0 -42 -3 -55 -15 -55 -12 0 -15 -13 -15 -55 0
-42 -3 -55 -15 -55 -11 0 -15 -12 -15 -45 0 -25 -4 -45 -10 -45 -5 0 -10 -25
-10 -55 0 -42 -3 -55 -15 -55 -12 0 -15 -14 -15 -70 l0 -70 70 0 c56 0 70 3
70 15 0 12 13 15 55 15 42 0 55 3 55 15 0 12 17 15 95 15 78 0 95 3 95 15 0
12 18 15 100 15 82 0 100 3 100 15 0 12 14 15 65 15 37 0 65 4 65 10 0 6 7 10
15 10 12 0 15 13 15 55 l0 55 -80 0 c-64 0 -80 3 -80 15 0 8 -7 15 -15 15 -8
0 -15 7 -15 15 0 10 -10 15 -30 15 -20 0 -30 -5 -30 -15 0 -8 -7 -15 -15 -15
-8 0 -15 -5 -15 -11 0 -14 -25 -39 -39 -39 -6 0 -11 -7 -11 -15 0 -12 -16 -15
-85 -15 -69 0 -85 3 -85 15 0 8 -7 15 -15 15 -8 0 -15 5 -15 10 0 6 -6 10 -14
10 -8 0 -18 5 -22 12 -4 7 -3 8 4 4 7 -4 12 -2 12 3 0 6 -7 11 -15 11 -10 0
-15 10 -15 30 0 20 -5 30 -15 30 -13 0 -15 23 -15 150 0 127 2 150 15 150 12
0 15 13 15 59 0 40 5 63 15 71 8 7 15 25 15 41 0 16 5 29 10 29 6 0 10 11 10
25 0 16 6 25 15 25 10 0 15 10 15 30 0 20 5 30 15 30 9 0 15 9 15 25 0 16 6
25 15 25 8 0 15 7 15 15 0 8 7 15 15 15 8 0 15 7 15 15 0 8 5 15 10 15 6 0 10
7 10 15 0 8 7 15 15 15 8 0 15 5 15 10 0 6 7 10 15 10 8 0 15 7 15 15 0 9 9
15 25 15 16 0 25 6 25 15 0 12 13 15 60 15 47 0 60 -3 60 -15 0 -11 11 -15 40
-15 29 0 40 4 40 15 0 8 7 15 15 15 8 0 15 7 15 15 0 12 13 15 55 15 42 0 55
-3 55 -15 0 -8 7 -15 15 -15 12 0 15 -16 15 -85 0 -69 -3 -85 -15 -85 -12 0
-15 -13 -15 -55 0 -42 -3 -55 -15 -55 -12 0 -15 -13 -15 -55 0 -42 -3 -55 -15
-55 -12 0 -15 -16 -15 -85 0 -69 -3 -85 -15 -85 -12 0 -15 -13 -15 -55 l0 -55
45 0 45 0 0 45 c0 33 4 45 15 45 12 0 15 14 15 70 0 40 4 70 10 70 6 0 10 38
10 95 0 78 3 95 15 95 12 0 15 13 15 55 0 42 3 55 15 55 12 0 15 13 15 55 0
42 3 55 15 55 11 0 15 11 15 40 0 22 5 40 10 40 6 0 10 7 10 15 0 11 12 15 45
15 33 0 45 -4 45 -15 0 -9 9 -15 25 -15 14 0 25 -4 25 -10 0 -5 7 -10 15 -10
8 0 15 5 15 10 0 6 7 10 15 10 8 0 15 7 15 15 0 8 7 15 15 15 8 0 15 7 15 15
0 12 17 15 95 15 78 0 95 -3 95 -15 0 -8 7 -15 15 -15 8 0 15 -7 15 -15 0 -8
7 -15 15 -15 11 0 15 -11 15 -40 0 -22 5 -40 10 -40 6 0 10 -48 10 -125 0
-104 2 -125 15 -125 10 0 15 10 15 30 0 20 5 30 15 30 9 0 15 9 15 25 0 16 6
25 15 25 11 0 15 11 15 41 0 39 17 69 39 69 6 0 11 14 11 30 0 20 5 30 15 30
8 0 15 7 15 15 0 8 7 15 15 15 9 0 15 9 15 25 0 14 5 25 10 25 6 0 10 7 10 15
0 10 10 15 30 15 20 0 30 5 30 15 0 8 7 15 15 15 8 0 15 7 15 15 0 9 9 15 25
15 14 0 25 5 25 10 0 6 30 10 70 10 40 0 70 -4 70 -10z m-6430 -1135 c0 -8 7
-15 15 -15 13 0 15 -21 15 -125 0 -104 -2 -125 -15 -125 -8 0 -15 -7 -15 -15
0 -13 -20 -15 -123 -15 -85 0 -127 4 -136 13 -11 10 -13 10 -7 0 4 -7 2 -13
-4 -13 -7 0 -10 49 -9 155 l1 155 139 0 c117 0 139 -2 139 -15z m3130 -710 c0
-113 -2 -135 -15 -135 -13 0 -15 -22 -15 -140 l0 -140 -25 0 c-16 0 -25 -6
-25 -15 0 -12 -16 -15 -85 -15 -69 0 -85 3 -85 15 0 8 -7 15 -15 15 -13 0 -15
37 -15 275 l0 275 140 0 140 0 0 -135z m1830 -10 c0 -10 10 -15 30 -15 20 0
30 -5 30 -15 0 -11 11 -15 40 -15 30 0 40 -4 40 -16 0 -8 5 -12 10 -9 6 4 7
11 4 17 -4 6 -3 8 2 5 6 -3 11 -22 12 -41 l3 -36 -281 0 c-180 0 -280 4 -280
10 0 6 7 10 15 10 8 0 15 7 15 15 0 8 7 15 15 15 8 0 15 7 15 15 0 12 16 15
85 15 69 0 85 3 85 15 0 12 14 15 65 15 51 0 65 3 65 15 0 8 7 15 15 15 8 0
15 -7 15 -15z m-2690 -1560 c0 -8 7 -15 15 -15 13 0 15 -21 15 -125 l0 -125
261 0 c212 0 263 -3 275 -14 11 -11 14 -46 14 -150 l0 -136 -425 0 -425 0 0
140 0 140 -280 0 -280 0 0 150 0 150 415 0 c362 0 415 -2 415 -15z m3140
-2115 l0 -140 -140 0 -140 0 0 140 0 140 140 0 140 0 0 -140z"/>
<path d="M6043 7522 c-47 -2 -63 -7 -63 -17 0 -9 -10 -15 -26 -15 -14 0 -32
-6 -40 -14 -8 -8 -14 -26 -14 -40 0 -16 -6 -26 -15 -26 -9 0 -15 -9 -15 -25 0
-16 6 -25 15 -25 8 0 15 -4 15 -10 0 -5 -8 -7 -17 -4 -17 5 -17 5 0 -6 9 -6
17 -20 17 -31 0 -11 5 -17 10 -14 6 3 10 -1 10 -9 0 -9 7 -17 15 -17 29 -3 33
-4 42 -13 4 -5 3 -7 -2 -3 -6 3 -17 2 -24 -2 -7 -5 1 -8 21 -9 18 0 34 -6 36
-11 2 -6 15 -11 28 -11 15 0 24 -6 24 -15 0 -9 9 -15 25 -15 14 0 28 -7 31
-15 4 -8 12 -15 20 -15 8 0 14 -7 14 -15 0 -8 5 -15 10 -15 6 0 10 -18 10 -40
0 -22 -4 -40 -10 -40 -5 0 -10 -7 -10 -15 0 -12 -13 -15 -59 -15 -35 0 -63 5
-67 12 -4 7 -3 8 4 4 7 -4 12 -2 12 3 0 6 -13 11 -30 11 -19 0 -30 5 -31 15
-3 29 -4 33 -13 42 -5 4 -6 3 -2 -4 3 -6 3 -14 -2 -17 -4 -2 -9 11 -10 31 -3
46 -9 54 -30 46 -14 -6 -15 -4 -5 8 10 13 10 16 -2 16 -8 0 -12 -4 -9 -9 4 -5
-3 -12 -15 -15 -18 -5 -21 -13 -21 -64 0 -50 2 -57 17 -52 10 4 14 2 9 -5 -3
-6 -2 -13 4 -17 6 -4 7 -11 4 -17 -4 -7 -2 -8 4 -4 11 7 17 -6 13 -28 -1 -5 6
-3 15 5 12 9 15 9 10 2 -5 -9 0 -13 13 -13 12 0 21 -6 21 -14 0 -10 22 -14 95
-15 80 -2 95 0 95 14 0 10 10 15 30 15 20 0 30 5 30 15 0 8 7 15 15 15 8 0 16
5 16 10 1 6 2 14 3 19 0 5 5 13 10 18 5 4 6 3 2 -4 -3 -6 -2 -14 4 -18 6 -4
10 19 10 64 0 56 -3 71 -15 71 -8 0 -15 7 -15 15 0 8 -7 15 -15 15 -8 0 -15 7
-15 15 0 8 -7 15 -15 15 -8 0 -15 5 -15 10 0 6 -11 10 -25 10 -16 0 -25 6 -25
15 0 10 -10 15 -30 15 -20 0 -30 5 -30 15 0 11 -11 15 -41 15 -23 0 -38 4 -34
10 3 5 -3 18 -15 30 -24 24 -27 70 -5 70 8 0 15 7 15 15 0 12 13 15 61 15 54
0 60 -2 55 -17 -6 -17 -5 -17 8 0 12 16 14 15 14 -10 0 -15 5 -29 11 -31 6 -2
11 -15 11 -28 0 -15 6 -24 15 -24 8 0 15 -7 15 -15 0 -8 7 -15 15 -15 8 0 15
7 15 15 0 8 7 15 15 15 8 0 15 9 15 20 0 11 5 19 11 18 6 -2 13 5 14 15 3 15
1 16 -11 6 -8 -7 -14 -8 -13 -3 5 28 -3 54 -17 54 -8 0 -13 4 -9 9 3 5 1 12
-5 16 -6 4 -8 11 -5 16 4 5 -10 9 -29 9 -19 0 -38 5 -42 12 -5 7 -3 8 6 3 8
-5 11 -4 7 2 -9 14 -48 19 -124 15z"/>
<path d="M6590 7505 c0 -8 -7 -15 -15 -15 -9 0 -15 -9 -15 -25 0 -14 -6 -25
-12 -25 -7 0 -18 -11 -25 -25 -6 -15 -7 -22 -1 -19 6 4 2 -5 -7 -20 -9 -14
-20 -24 -24 -22 -6 4 -11 -19 -14 -61 0 -9 -4 -10 -13 -2 -8 7 -12 6 -11 -3 1
-34 -4 -48 -18 -48 -9 0 -15 -9 -15 -25 0 -14 -4 -25 -10 -25 -5 0 -10 -13
-10 -30 0 -20 -5 -30 -15 -30 -9 0 -15 -9 -15 -25 0 -16 -6 -25 -15 -25 -8 0
-15 -8 -15 -17 0 -10 -5 -25 -11 -33 -9 -13 -10 -12 -5 3 3 9 1 17 -5 17 -13
0 -9 -99 4 -107 6 -3 7 -1 3 5 -3 6 -2 13 4 17 5 3 10 -1 10 -9 0 -9 7 -16 15
-16 8 0 15 7 15 15 0 8 7 15 15 15 8 0 15 7 15 15 0 8 5 15 10 15 6 0 10 7 10
16 0 8 4 13 9 9 5 -3 13 0 17 6 4 7 3 9 -4 5 -6 -3 -13 -2 -17 4 -3 5 1 10 9
10 11 0 16 9 16 30 0 20 5 30 15 30 9 0 15 9 15 25 0 14 6 25 13 25 12 0 37
44 37 67 0 7 7 13 15 13 10 0 15 11 15 35 0 29 3 33 18 28 15 -6 16 -5 2 12
-9 11 -10 16 -2 11 8 -5 12 0 12 13 0 12 7 21 15 21 9 0 15 9 15 25 0 16 6 25
15 25 10 0 15 10 15 28 0 15 6 34 13 41 10 11 10 13 0 7 -9 -5 -13 0 -13 13 0
17 -6 21 -30 21 -20 0 -30 -5 -30 -15z"/>
<path d="M7280 6205 c0 -8 -4 -15 -10 -15 -5 0 -10 -11 -10 -25 0 -16 -6 -25
-15 -25 -8 0 -15 -7 -15 -15 0 -8 -7 -15 -15 -15 -10 0 -15 -10 -15 -30 0 -20
-5 -30 -15 -30 -9 0 -15 -10 -15 -26 0 -24 3 -25 43 -23 42 3 67 18 67 38 0 6
7 11 15 11 8 0 15 7 15 15 0 8 7 15 15 15 10 0 15 10 15 30 0 20 5 30 15 30
11 0 15 11 15 40 l0 40 -45 0 c-33 0 -45 -4 -45 -15z"/>
<path d="M6650 6125 c0 -8 -7 -15 -15 -15 -8 0 -15 -7 -15 -15 0 -8 -7 -15
-15 -15 -8 0 -15 -7 -15 -15 0 -8 -7 -15 -15 -15 -11 0 -15 -11 -15 -40 0 -29
-4 -40 -15 -40 -11 0 -15 -11 -15 -40 0 -22 -4 -40 -10 -40 -5 0 -10 -13 -10
-30 0 -20 -5 -30 -15 -30 -12 0 -15 -14 -15 -70 0 -56 -3 -70 -15 -70 -12 0
-15 -14 -15 -70 l0 -70 40 0 c29 0 40 4 40 15 0 8 5 15 11 15 5 0 8 -4 5 -9
-4 -5 5 -4 19 2 14 7 25 18 25 25 0 6 7 12 15 12 8 0 15 7 15 15 0 8 7 15 15
15 9 0 15 9 15 25 0 14 5 25 10 25 6 0 10 20 10 45 0 33 4 45 15 45 11 0 15
11 15 40 0 29 4 40 15 40 13 0 15 21 15 125 0 104 -2 125 -15 125 -8 0 -15 7
-15 15 0 9 -9 15 -25 15 -16 0 -25 -6 -25 -15z"/>
<path d="M5950 6010 c0 -5 -7 -10 -15 -10 -8 0 -15 -7 -15 -15 0 -8 -4 -15
-10 -15 -5 0 -10 -7 -10 -15 0 -8 -7 -15 -15 -15 -9 0 -15 -9 -15 -25 0 -16
-6 -25 -15 -25 -10 0 -15 -10 -15 -30 0 -20 -5 -30 -15 -30 -9 0 -15 -9 -15
-25 0 -14 -4 -25 -10 -25 -6 0 -10 -48 -10 -125 0 -77 4 -125 10 -125 6 0 10
-7 10 -15 0 -8 7 -15 15 -15 8 0 15 -7 15 -15 0 -8 7 -15 15 -15 8 0 15 7 15
15 0 8 7 15 15 15 8 0 15 5 15 11 0 14 25 39 39 39 6 0 11 20 11 45 0 33 4 45
15 45 11 0 15 11 15 40 0 29 4 40 15 40 10 0 15 10 15 30 0 20 5 30 15 30 12
0 15 13 15 55 0 30 5 55 10 55 6 0 10 28 10 65 l0 65 -55 0 c-30 0 -55 -4 -55
-10z"/>
<path d="M5635 5810 c-3 -5 -1 -10 4 -10 6 0 11 5 11 10 0 6 -2 10 -4 10 -3 0
-8 -4 -11 -10z"/>
<path d="M4980 4680 c0 -5 -11 -10 -25 -10 -16 0 -25 -6 -25 -15 0 -8 -7 -15
-15 -15 -8 0 -15 -7 -15 -15 0 -8 -7 -15 -15 -15 -8 0 -15 -7 -15 -15 0 -8 -5
-15 -11 -15 -6 0 -17 -6 -25 -14 -8 -8 -14 -19 -14 -25 0 -6 -7 -11 -15 -11
-8 0 -15 -7 -15 -15 0 -8 -7 -15 -15 -15 -8 0 -15 -7 -15 -15 0 -8 -7 -15 -15
-15 -9 0 -15 -9 -15 -25 0 -16 -6 -25 -15 -25 -10 0 -15 -10 -15 -30 0 -16 -4
-30 -10 -30 -5 0 -10 -7 -10 -15 0 -8 -7 -15 -15 -15 -12 0 -15 -13 -15 -55 0
-42 3 -55 15 -55 8 0 14 -6 13 -12 -2 -8 9 -14 25 -16 19 -2 27 1 27 12 0 9 7
16 15 16 8 0 15 7 15 15 0 10 10 15 30 15 26 0 30 4 30 26 0 26 20 54 39 54 6
0 11 7 11 15 0 8 7 15 15 15 10 0 15 10 15 30 0 20 5 30 15 30 9 0 15 9 15 24
0 13 4 26 10 28 5 2 11 13 13 25 2 12 7 26 12 30 4 5 5 3 1 -4 -3 -6 -2 -14 4
-18 6 -4 10 9 10 34 0 30 4 41 15 41 11 0 15 12 15 45 0 33 4 45 15 45 8 0 15
5 15 10 0 6 -13 10 -30 10 -16 0 -30 -4 -30 -10z"/>
<path d="M160 7395 l0 -705 415 0 415 0 0 140 0 140 580 0 580 0 0 -140 0
-140 280 0 280 0 0 -140 0 -140 140 0 140 0 0 280 0 280 -280 0 -280 0 0 135
0 135 -290 0 -290 0 0 140 0 140 -140 0 -140 0 0 -140 0 -140 -275 0 c-238 0
-275 2 -275 15 0 8 -7 15 -15 15 -13 0 -15 21 -15 125 l0 125 -125 0 c-104 0
-125 2 -125 15 0 8 -7 15 -15 15 -13 0 -15 22 -15 140 l0 140 -140 0 -140 0 0
135 0 135 -135 0 -135 0 0 -705z m402 -143 c-1 -8 2 -11 8 -7 6 3 8 11 5 16
-4 5 23 9 64 9 l71 0 0 -150 0 -150 -140 0 -140 0 0 134 c0 127 1 134 21 139
12 3 18 10 14 17 -5 8 9 10 47 8 37 -2 52 -7 50 -16z"/>
<path d="M1880 7815 c0 -8 -7 -15 -15 -15 -13 0 -15 -21 -15 -125 l0 -125 140
0 140 0 0 140 0 140 -125 0 c-104 0 -125 -2 -125 -15z"/>
<path d="M3570 7395 l0 -125 51 0 c37 0 48 -3 43 -12 -6 -10 -4 -10 7 0 7 6
35 12 62 12 36 0 46 -3 41 -12 -6 -10 -4 -10 7 0 7 6 23 12 36 12 23 0 23 1
23 125 l0 125 -135 0 -135 0 0 -125z"/>
<path d="M8953 7505 c0 -8 4 -12 9 -9 4 3 8 -16 8 -41 0 -25 -4 -44 -9 -41
-10 6 -10 -11 0 -29 5 -9 4 -71 -1 -77 -1 -2 -3 -10 -5 -19 -2 -11 7 -16 33
-17 42 -3 55 -10 46 -24 -4 -7 -2 -8 5 -4 6 4 9 12 6 17 -4 5 16 9 45 9 38 0
49 -3 44 -12 -6 -10 -4 -10 7 0 16 15 83 17 74 1 -4 -6 2 -13 14 -16 20 -5 21
-12 21 -139 l0 -134 140 0 140 0 0 -140 0 -140 -140 0 -140 0 0 -140 0 -140
280 0 280 0 0 140 0 140 135 0 135 0 0 140 0 140 -135 0 -135 0 0 135 0 135
-140 0 -140 0 0 140 0 141 -288 -1 c-240 -1 -289 -3 -289 -15z"/>
<path d="M9810 7395 l0 -125 56 0 c41 0 53 -3 48 -12 -6 -10 -4 -10 7 0 7 6
26 12 42 12 20 0 26 -4 21 -12 -6 -10 -4 -10 7 0 7 6 30 12 51 12 l38 0 0 125
0 125 -135 0 -135 0 0 -125z"/>
<path d="M10390 7105 l0 -415 140 0 140 0 0 -140 c0 -118 -2 -140 -15 -140 -8
0 -15 -4 -15 -10 0 -6 -48 -10 -125 -10 l-125 0 0 -280 0 -280 -290 0 -290 0
0 -140 0 -140 -140 0 -140 0 0 -135 0 -135 140 0 140 0 0 135 0 135 135 0 135
0 0 -135 0 -135 140 0 140 0 0 125 c0 104 2 125 15 125 8 0 15 5 15 10 0 6 53
10 140 10 l140 0 0 -135 0 -135 275 0 275 0 0 135 0 135 140 0 140 0 0 140 0
140 -140 0 -140 0 0 140 0 140 -140 0 -140 0 0 -140 0 -140 140 0 140 0 0
-140 0 -140 -275 0 -275 0 0 295 0 295 135 0 135 0 0 135 0 135 140 0 140 0 0
140 0 140 290 0 290 0 0 125 c0 77 -4 125 -10 125 -5 0 -10 7 -10 15 0 13 -22
15 -140 15 -107 0 -140 3 -139 13 1 6 1 67 0 135 l-1 122 -280 0 -280 0 0
-135 0 -135 140 0 140 0 0 -140 0 -140 -275 0 -275 0 0 281 c0 221 3 279 13
273 9 -6 9 -5 0 7 -11 13 -6 16 38 18 39 2 49 -1 43 -11 -5 -10 -4 -11 7 0 7
6 35 12 62 12 36 0 46 -3 41 -12 -6 -10 -4 -10 7 0 7 6 23 12 36 12 23 0 23 1
23 125 l0 125 -275 0 -275 0 0 -415z"/>
<path d="M11530 7395 l0 -125 26 0 c17 0 23 -4 18 -12 -6 -10 -4 -10 8 0 22
18 114 12 110 -6 -1 -8 2 -11 8 -7 6 3 8 11 5 16 -4 5 16 9 44 9 l51 0 0 125
0 125 -135 0 -135 0 0 -125z"/>
<path d="M8670 6965 l0 -275 -275 0 -275 0 0 -140 0 -140 415 0 415 0 0 140 0
140 135 0 135 0 0 140 0 140 -135 0 -135 0 0 135 0 135 -140 0 -140 0 0 -275z"/>
<path d="M1290 6550 l0 -140 140 0 140 0 0 125 c0 104 -2 125 -15 125 -8 0
-14 6 -12 13 1 9 -30 13 -125 15 l-128 3 0 -141z"/>
<path d="M1880 6675 c0 -8 -7 -15 -15 -15 -13 0 -15 -21 -15 -125 l0 -125 140
0 140 0 0 140 0 140 -125 0 c-104 0 -125 -2 -125 -15z"/>
<path d="M10110 6675 c0 -8 -7 -15 -15 -15 -13 0 -15 -21 -15 -125 l0 -125
140 0 140 0 0 140 0 140 -125 0 c-104 0 -125 -2 -125 -15z"/>
<path d="M430 6265 l0 -125 140 0 140 0 0 -140 c0 -118 2 -140 15 -140 8 0 15
-7 15 -15 0 -13 53 -15 415 -15 l415 0 0 140 0 140 -140 0 -140 0 0 140 0 140
-430 0 -430 0 0 -125z"/>
<path d="M2990 6265 l0 -125 425 0 425 0 0 125 0 125 -425 0 -425 0 0 -125z"/>
<path d="M8970 6339 c0 -27 -4 -48 -8 -45 -5 3 -9 -1 -9 -9 0 -8 4 -12 9 -9 4
3 8 -16 8 -41 0 -25 -4 -44 -9 -41 -10 7 -8 -9 4 -36 6 -16 23 -18 131 -18
l124 0 0 125 0 125 -125 0 -125 0 0 -51z"/>
<path d="M9810 6265 l0 -125 135 0 135 0 0 125 0 125 -135 0 -135 0 0 -125z"/>
<path d="M11220 6265 l0 -125 290 0 290 0 0 125 0 125 -290 0 -290 0 0 -125z"/>
<path d="M9250 5970 l0 -140 125 0 c104 0 125 2 125 15 0 8 7 15 15 15 13 0
15 21 15 125 l0 125 -140 0 -140 0 0 -140z"/>
<path d="M1880 5540 c0 -5 -7 -10 -15 -10 -13 0 -15 -21 -15 -125 l0 -125 140
0 140 0 0 135 0 135 -125 0 c-77 0 -125 -4 -125 -10z"/>
<path d="M8970 5219 c0 -16 -4 -28 -8 -25 -5 3 -9 -1 -9 -9 0 -8 4 -12 9 -9 4
3 8 -20 8 -51 0 -31 -4 -54 -8 -51 -5 3 -9 -1 -9 -9 0 -8 4 -12 9 -9 4 3 8 -9
8 -25 l0 -31 125 0 c104 0 125 -2 125 -15 0 -8 7 -15 15 -15 13 0 15 -22 15
-140 l0 -140 280 0 280 0 0 -135 0 -135 135 0 135 0 0 135 0 135 -135 0 -135
0 0 140 0 140 -140 0 -140 0 0 140 0 140 -280 0 -280 0 0 -31z"/>
<path d="M9810 5125 l0 -125 135 0 135 0 0 125 0 125 -135 0 -135 0 0 -125z"/>
<path d="M10390 5125 c0 -104 -2 -125 -15 -125 -8 0 -15 -7 -15 -15 0 -13 -22
-15 -140 -15 l-140 0 0 -125 c0 -104 2 -125 15 -125 8 0 15 -7 15 -15 0 -13
22 -15 140 -15 l140 0 0 -135 0 -135 140 0 140 0 0 -140 0 -140 275 0 275 0 0
140 0 140 -275 0 -275 0 0 415 0 415 -140 0 -140 0 0 -125z"/>
<path d="M11220 4985 c0 -229 2 -265 15 -265 8 0 15 -7 15 -15 0 -13 22 -15
140 -15 l140 0 0 -275 0 -275 135 0 135 0 0 555 0 555 -290 0 -290 0 0 -265z"/>
<path d="M1880 4405 c0 -8 -7 -15 -15 -15 -13 0 -15 -21 -15 -125 l0 -125 140
0 140 0 0 140 0 140 -125 0 c-104 0 -125 -2 -125 -15z"/>
<path d="M9250 4280 l0 -140 140 0 140 0 0 125 c0 104 -2 125 -15 125 -8 0
-15 7 -15 15 0 13 -21 15 -125 15 l-125 0 0 -140z"/>
<path d="M10110 4405 c0 -8 -7 -15 -15 -15 -13 0 -15 -21 -15 -125 l0 -125
140 0 140 0 0 140 0 140 -125 0 c-104 0 -125 -2 -125 -15z"/>
<path d="M6120 3985 l0 -125 140 0 140 0 0 -150 0 -150 -280 0 -280 0 0 -140
0 -140 415 0 415 0 0 275 c0 238 2 275 15 275 8 0 15 7 15 15 0 13 21 15 125
15 104 0 125 -2 125 -15 0 -8 7 -15 15 -15 13 0 15 -68 15 -555 l0 -555 140 0
140 0 0 420 0 420 135 0 135 0 0 135 0 135 -135 0 -135 0 0 140 0 140 -570 0
-570 0 0 -125z"/>
<path d="M8970 4089 c0 -13 -4 -18 -12 -13 -7 5 -8 3 -2 -7 11 -18 13 -99 2
-105 -5 -3 -5 -11 -1 -17 4 -7 8 -24 9 -39 1 -16 2 -32 3 -38 1 -6 50 -10 126
-10 l125 0 0 125 0 125 -125 0 c-120 0 -125 -1 -125 -21z"/>
<path d="M9530 3970 l0 -140 -140 0 -140 0 0 -275 0 -275 140 0 140 0 0 -140
0 -140 140 0 140 0 0 140 0 140 -140 0 -140 0 0 140 0 140 275 0 275 0 0 -280
0 -280 140 0 140 0 1 133 c1 72 1 135 0 139 0 4 130 7 289 8 l290 1 0 -141 0
-140 140 0 140 0 0 139 c0 118 2 141 17 152 11 10 14 10 9 2 -6 -10 22 -13
123 -13 l131 0 0 140 0 140 -140 0 -141 0 2 -137 1 -138 -141 -3 -141 -3 0
141 0 140 -135 0 -135 0 0 275 0 275 -140 0 -140 0 0 -125 c0 -104 -2 -125
-15 -125 -8 0 -15 -7 -15 -15 0 -13 -21 -15 -125 -15 -104 0 -125 2 -125 15 0
8 -7 15 -15 15 -13 0 -15 21 -15 125 l0 125 -275 0 -275 0 0 -140z"/>
<path d="M11220 3985 l0 -125 140 0 140 0 0 125 0 125 -140 0 -140 0 0 -125z"/>
<path d="M430 3695 l0 -135 -135 0 -135 0 0 -570 0 -570 125 0 c104 0 125 2
125 15 0 8 5 15 10 15 7 0 10 192 10 555 l0 555 140 0 140 0 0 135 0 135 -140
0 -140 0 0 -135z"/>
<path d="M5260 3555 l0 -275 140 0 140 0 0 275 0 275 -140 0 -140 0 0 -275z"/>
<path d="M7840 3570 c0 -224 -2 -260 -15 -260 -8 0 -15 -7 -15 -15 0 -13 -21
-15 -125 -15 -104 0 -125 -2 -125 -15 0 -8 -7 -15 -15 -15 -13 0 -15 -36 -15
-265 l0 -265 140 0 140 0 1 133 c1 72 1 136 0 140 -1 5 3 6 9 2 6 -3 8 -11 5
-16 -4 -5 -1 -9 4 -9 6 0 11 7 11 15 0 13 68 15 555 15 487 0 555 -2 555 -15
0 -8 5 -15 10 -15 6 0 10 -27 10 -61 0 -43 -3 -58 -12 -53 -7 5 -8 3 -2 -7 11
-18 13 -99 2 -105 -26 -16 18 -24 133 -24 79 0 129 -4 129 -10 0 -5 7 -10 15
-10 13 0 15 -83 15 -710 0 -408 -4 -710 -9 -710 -5 0 -12 6 -14 13 -4 9 -6 9
-6 0 -1 -10 -35 -13 -136 -13 l-135 0 0 140 0 140 -140 0 -140 0 0 -275 0
-275 -140 0 -140 0 0 275 0 275 -430 0 -430 0 0 -275 0 -275 -135 0 -135 0 0
135 0 135 -140 0 -140 0 0 -275 0 -275 275 0 275 0 0 140 0 140 140 0 c118 0
140 -2 140 -15 0 -8 7 -15 15 -15 13 0 15 -21 15 -125 l0 -125 555 0 555 0 0
140 0 140 290 0 290 0 0 -140 0 -140 140 0 140 0 0 275 0 275 290 0 290 0 0
-275 0 -275 555 0 555 0 0 140 0 140 -415 0 -415 0 0 135 0 135 125 0 c104 0
125 2 125 15 0 8 5 15 10 15 6 0 10 48 10 125 l0 125 -135 0 -135 0 0 155 0
155 415 0 415 0 0 135 0 135 -415 0 -415 0 0 140 0 140 125 0 c104 0 125 2
125 15 0 8 5 15 10 15 6 0 10 48 10 125 l0 125 -135 0 -135 0 0 135 0 135 -30
0 c-20 0 -30 5 -30 15 0 8 -7 15 -15 15 -8 0 -15 -6 -15 -12 0 -8 -16 -14 -40
-15 -30 -2 -40 1 -40 12 0 8 -7 15 -15 15 -8 0 -15 -7 -15 -16 0 -10 -7 -14
-17 -12 -10 2 -17 10 -15 16 1 7 -3 12 -9 12 -6 0 -9 -7 -5 -15 4 -10 -1 -15
-14 -15 -19 0 -20 -7 -20 -125 0 -104 -2 -125 -15 -125 -8 0 -15 -4 -15 -10 0
-6 -48 -10 -125 -10 -77 0 -125 4 -125 10 0 6 -7 10 -15 10 -13 0 -15 21 -15
125 0 77 -4 125 -10 125 -5 0 -10 7 -10 15 0 8 -7 15 -15 15 -8 0 -15 -7 -15
-15 0 -8 -7 -15 -15 -15 -8 0 -15 7 -15 15 0 8 -7 15 -15 15 -8 0 -15 -6 -15
-12 0 -8 -16 -14 -40 -15 -30 -2 -40 1 -40 12 0 8 -7 15 -15 15 -8 0 -15 -7
-15 -15 0 -9 -9 -15 -25 -15 l-25 0 0 -135 0 -135 -140 0 -140 0 0 135 c0 113
-2 135 -15 135 -8 0 -15 7 -15 15 0 8 -7 15 -15 15 -8 0 -15 -6 -15 -12 0 -8
-16 -14 -40 -15 -30 -2 -40 1 -40 12 0 8 -7 15 -15 15 -8 0 -15 -6 -15 -12 0
-8 -16 -14 -40 -15 -30 -2 -40 1 -40 12 0 10 -10 15 -30 15 l-30 0 0 140 0
140 -415 0 -415 0 0 140 0 140 -135 0 c-83 0 -135 4 -135 10 0 6 -7 10 -15 10
-13 0 -15 21 -15 125 l0 125 -125 0 -125 0 0 -260z m2550 -1565 c0 -362 -2
-415 -15 -415 -8 0 -15 -7 -15 -15 0 -13 -53 -15 -415 -15 l-415 0 0 430 0
430 430 0 430 0 0 -415z"/>
<path d="M9810 2005 l0 -135 135 0 135 0 0 135 0 135 -135 0 -135 0 0 -135z"/>
<path d="M8670 3705 c0 -104 2 -125 15 -125 8 0 15 -4 15 -10 0 -6 48 -10 125
-10 l125 0 0 135 0 135 -140 0 -140 0 0 -125z"/>
<path d="M1290 3420 l0 -140 140 0 140 0 0 140 0 140 -140 0 -140 0 0 -140z"/>
<path d="M740 3265 c0 -8 -7 -15 -15 -15 -13 0 -15 -21 -15 -125 l0 -125 140
0 c118 0 140 -2 140 -15 0 -8 7 -15 15 -15 13 0 15 -21 15 -125 0 -104 -2
-125 -15 -125 -8 0 -15 -4 -15 -10 0 -6 -53 -10 -140 -10 l-140 0 0 -125 c0
-104 2 -125 15 -125 8 0 15 -7 15 -15 0 -13 36 -15 265 -15 229 0 265 2 265
15 0 8 5 15 10 15 7 0 10 140 10 400 0 260 -3 400 -10 400 -5 0 -10 7 -10 15
0 13 -36 15 -265 15 -229 0 -265 -2 -265 -15z"/>
<path d="M5870 2992 c0 -5 7 -9 15 -9 8 0 15 4 15 9 0 4 -7 8 -15 8 -8 0 -15
-4 -15 -8z"/>
<path d="M6260 2992 c0 -5 7 -9 15 -9 8 0 15 4 15 9 0 4 -7 8 -15 8 -8 0 -15
-4 -15 -8z"/>
<path d="M6370 2992 c0 -5 7 -9 15 -9 8 0 15 4 15 9 0 4 -7 8 -15 8 -8 0 -15
-4 -15 -8z"/>
<path d="M6480 2992 c0 -5 7 -9 15 -9 8 0 15 4 15 9 0 4 -7 8 -15 8 -8 0 -15
-4 -15 -8z"/>
<path d="M9310 2992 c0 -5 7 -9 15 -9 8 0 15 4 15 9 0 4 -7 8 -15 8 -8 0 -15
-4 -15 -8z"/>
<path d="M9420 2992 c0 -5 7 -9 15 -9 8 0 15 4 15 9 0 4 -7 8 -15 8 -8 0 -15
-4 -15 -8z"/>
<path d="M9920 2992 c0 -5 7 -9 15 -9 8 0 15 4 15 9 0 4 -7 8 -15 8 -8 0 -15
-4 -15 -8z"/>
<path d="M10530 2992 c0 -5 7 -9 15 -9 8 0 15 4 15 9 0 4 -7 8 -15 8 -8 0 -15
-4 -15 -8z"/>
<path d="M11531 2860 l-2 -140 136 0 135 0 0 125 c0 77 -4 125 -10 125 -5 0
-10 7 -10 15 0 8 -7 15 -15 15 -8 0 -15 -7 -15 -15 0 -8 -7 -15 -15 -15 -8 0
-15 7 -15 15 0 8 -7 15 -15 15 -8 0 -15 -7 -15 -16 0 -10 -7 -14 -17 -12 -10
2 -17 10 -15 16 1 7 -3 12 -9 12 -6 0 -9 -7 -5 -15 4 -10 -1 -15 -14 -15 -11
0 -20 7 -20 15 0 8 -7 15 -15 15 -8 0 -15 -7 -15 -16 0 -10 -7 -14 -17 -12
-10 2 -17 10 -15 16 1 7 -2 12 -7 12 -5 0 -10 -63 -10 -140z"/>
<path d="M7840 2435 c0 -229 -2 -265 -15 -265 -8 0 -15 -7 -15 -15 0 -13 -21
-15 -125 -15 -104 0 -125 -2 -125 -15 0 -8 -7 -15 -15 -15 -12 0 -15 -20 -15
-120 l0 -120 710 0 710 0 0 275 0 275 -140 0 -140 0 0 -140 0 -140 -140 0
-140 0 0 280 0 280 -275 0 -275 0 0 -265z"/>
<path d="M11220 2575 c0 -104 2 -125 15 -125 8 0 15 -7 15 -15 0 -13 21 -15
125 -15 l125 0 0 140 0 140 -140 0 -140 0 0 -125z"/>
<path d="M160 1145 l0 -995 985 0 985 0 0 995 0 995 -985 0 -985 0 0 -995z
m1690 0 l0 -725 -710 0 -710 0 0 725 0 725 710 0 710 0 0 -725z"/>
<path d="M710 1145 l0 -415 430 0 430 0 0 415 0 415 -430 0 -430 0 0 -415z"/>
<path d="M6980 2005 l0 -135 140 0 140 0 0 120 c0 100 -2 120 -15 120 -8 0
-15 7 -15 15 0 13 -21 15 -125 15 l-125 0 0 -135z"/>
<path d="M2430 1300 l0 -570 140 0 140 0 0 555 c0 487 -2 555 -15 555 -8 0
-15 7 -15 15 0 13 -21 15 -125 15 l-125 0 0 -570z"/>
<path d="M11530 1730 l0 -140 135 0 135 0 0 125 c0 77 -4 125 -10 125 -5 0
-10 7 -10 15 0 13 -21 15 -125 15 l-125 0 0 -140z"/>
<path d="M3290 1435 c0 -104 -2 -125 -15 -125 -8 0 -15 -7 -15 -15 0 -13 -22
-15 -135 -15 l-135 0 0 -121 c0 -91 3 -124 14 -135 11 -11 46 -14 150 -14
l136 0 0 -140 0 -140 275 0 275 0 0 140 0 140 -135 0 -135 0 0 275 0 275 -140
0 -140 0 0 -125z"/>
<path d="M11220 1435 c0 -104 2 -125 15 -125 8 0 15 -7 15 -15 0 -13 21 -15
125 -15 l125 0 0 140 0 140 -140 0 -140 0 0 -125z"/>
<path d="M2740 715 c0 -8 -7 -15 -15 -15 -13 0 -15 -21 -15 -125 l0 -125 140
0 140 0 0 140 0 140 -125 0 c-104 0 -125 -2 -125 -15z"/>
<path d="M6700 590 l0 -140 125 0 125 0 0 140 0 140 -125 0 -125 0 0 -140z"/>
<path d="M7560 715 c0 -8 -7 -15 -15 -15 -13 0 -15 -21 -15 -125 l0 -125 140
0 140 0 0 140 0 140 -125 0 c-104 0 -125 -2 -125 -15z"/>
<path d="M8969 710 c-3 -47 -5 -56 -12 -67 -4 -6 -4 -14 1 -17 11 -6 9 -87 -2
-105 -6 -10 -5 -12 2 -7 8 5 12 -4 12 -29 0 -22 -4 -34 -10 -30 -5 3 -10 -3
-10 -14 0 -21 -4 -21 -280 -21 l-280 0 0 -135 0 -135 415 0 415 0 0 290 0 290
-125 0 c-118 0 -125 -1 -126 -20z"/>
<path d="M10110 715 c0 -8 -7 -15 -15 -15 -13 0 -15 -21 -15 -125 l0 -125 140
0 140 0 0 140 0 140 -125 0 c-104 0 -125 -2 -125 -15z"/>
<path d="M11530 590 l0 -140 135 0 135 0 0 125 c0 77 -4 125 -10 125 -5 0 -10
7 -10 15 0 13 -21 15 -125 15 l-125 0 0 -140z"/>
<path d="M2430 285 l0 -135 125 0 c77 0 125 4 125 10 0 6 7 10 15 10 13 0 15
21 15 125 l0 125 -140 0 -140 0 0 -135z"/>
<path d="M2990 299 c0 -91 3 -124 14 -135 11 -11 44 -14 135 -14 l121 0 0 135
0 135 -135 0 -135 0 0 -121z"/>
<path d="M7260 285 l0 -135 121 0 c91 0 124 3 135 14 11 11 14 44 14 135 l0
121 -135 0 -135 0 0 -135z"/>
<path d="M7840 285 l0 -135 125 0 125 0 0 135 0 135 -125 0 -125 0 0 -135z"/>
<path d="M9530 285 l0 -135 275 0 275 0 0 135 0 135 -275 0 -275 0 0 -135z"/>
<path d="M10390 285 l0 -135 125 0 c77 0 125 4 125 10 0 6 7 10 15 10 13 0 15
21 15 125 l0 125 -140 0 -140 0 0 -135z"/>
</g>
</svg>
