<?xml version="1.0" standalone="no"?>
<!DOCTYPE svg PUBLIC "-//W3C//DTD SVG 20010904//EN"
 "http://www.w3.org/TR/2001/REC-SVG-20010904/DTD/svg10.dtd">
<svg version="1.0" xmlns="http://www.w3.org/2000/svg"
 width="486.000000pt" height="513.000000pt" viewBox="0 0 486.000000 513.000000"
 preserveAspectRatio="xMidYMid meet">

<g transform="translate(0.000000,513.000000) scale(0.100000,-0.100000)"
fill="#000000" stroke="none">
<path d="M2190 4534 c-14 -2 -65 -9 -115 -15 -336 -40 -689 -194 -975 -424
-175 -141 -328 -295 -402 -405 -105 -156 -223 -380 -267 -510 -33 -94 -87
-330 -102 -445 -17 -123 -17 -418 0 -540 29 -204 90 -402 190 -610 136 -284
302 -498 536 -690 122 -99 164 -128 299 -205 349 -198 725 -291 1116 -276 468
17 867 157 1227 431 364 276 632 690 753 1167 83 324 61 771 -56 1128 -98 296
-321 643 -549 849 -202 183 -486 359 -700 435 -250 88 -373 108 -680 111 -137
2 -261 1 -275 -1z m535 -490 c144 -20 240 -46 240 -64 0 -8 -36 -38 -80 -67
-227 -146 -469 -380 -599 -577 -120 -182 -236 -469 -271 -670 -38 -219 -25
-517 31 -735 21 -80 23 -99 13 -130 -37 -112 -141 -172 -469 -270 -169 -50
-310 -81 -371 -81 -44 0 -50 3 -82 43 -319 390 -414 998 -238 1517 105 312
327 582 651 792 128 83 231 132 375 176 288 90 506 108 800 66z m855 -491
c299 -325 432 -634 447 -1038 4 -128 2 -172 -10 -221 -26 -99 -67 -174 -129
-237 -198 -199 -558 -175 -941 65 -109 68 -177 121 -262 204 -172 168 -210
276 -149 424 77 191 174 342 303 473 147 151 291 246 541 358 119 53 126 52
200 -28z"/>
</g>
</svg>
